<?xml version="1.0" standalone="no"?>
<!DOCTYPE svg PUBLIC "-//W3C//DTD SVG 1.1//EN" 
  "http://www.w3.org/Graphics/SVG/1.1/DTD/svg11.dtd">
<svg width="600.000mm" height="225.000mm" version="1.1"
     viewBox="0 0 600.000 225.000"
     xmlns="http://www.w3.org/2000/svg"
     xmlns:fpd="http://www.schaeffer-ag.de">
  <desc>Created with the Front Panel Designer by the export of the file 'middle.fpd'.</desc>
  <defs>
    <pattern id="revside-fill" x="1" y="1" width="1.5" height="1.5" patternUnits="userSpaceOnUse">
      <line x1="0" y1="0" x2="1" y2="1" style="stroke-width:0.2; stroke:black; stroke-dasharray:none;" />
      <line x1="0" y1="1" x2="1" y2="0" style="stroke-width:0.2; stroke:black; stroke-dasharray:none;" />
    </pattern>
    <pattern id="revside-fill-e0e0e0" x="1" y="1" width="1.5" height="1.5" patternUnits="userSpaceOnUse">
      <line x1="0" y1="0" x2="1.5" y2="1.5" style="stroke-width:0.2; stroke:#e0e0e0; stroke-dasharray:none;" />
      <line x1="0" y1="1.5" x2="1.5" y2="0" style="stroke-width:0.2; stroke:#e0e0e0; stroke-dasharray:none;" />
    </pattern>
  </defs>
<g transform="scale(1,-1) translate(0, -225.000)" 
   fill-rule="evenodd"
   style="stroke-linecap:round; stroke-linejoin:round; stroke-opacity:1.0; stroke-opacity:1.0;">
<path d="M600.000 225.000 
L0.000 225.000
L0.000 225.000
L0.000 0.000
L0.000 0.000
L600.000 0.000
L600.000 0.000
L600.000 225.000
L600.000 225.000z"
fill="#000000" vector-effect="non-scaling-stroke" stroke="#000000" stroke-width="0.100mm" />
<path d="M13.000 207.750 
L13.000 210.180
L13.891 210.180
A0.608,0.608 0 0,0 13.891,208.965
L13.000 208.965
L13.945 208.965
L14.485 207.750
M15.106 210.180 L15.106 207.750
M17.239 209.829 
A0.792,0.792 0 0,1 15.754,209.424
L15.754 208.506
A0.811,0.811 0 0,1 17.320,208.209
M17.968 210.180 
L17.968 207.750
L17.968 208.965
L19.588 208.965
L19.588 207.750
L19.588 210.180
M20.236 210.180 
L21.856 210.180
L21.046 210.180
L21.046 207.750
M22.504 210.180 L22.504 207.750
M23.152 207.750 
L23.152 210.180
L24.772 207.750
L24.772 210.180
M26.554 208.965 
L27.148 208.965
L27.148 208.560
A0.864,0.864 0 0,0 25.420,208.560
L25.420 209.370
A0.832,0.832 0 0,0 26.959,209.829
M28.066 208.425 L29.416 208.425
M27.796 207.750 L28.741 210.180L29.686 207.750
M30.604 208.425 L31.954 208.425
M30.334 207.750 L31.279 210.180L32.224 207.750
M32.872 207.750 
L32.872 210.180
L34.492 207.750
L34.492 210.180
M35.140 210.180 
L35.815 207.750
L36.490 210.180
L37.165 207.750
L37.840 210.180
M38.488 210.180 L38.488 207.750
M40.054 210.180 L40.054 208.290A0.549,0.549 0 0,0 39.136,207.858
M40.702 210.180 
L42.322 210.180
L40.702 207.750
L42.322 207.750
M42.970 208.965 L44.320 208.965
M44.590 210.180 
L42.970 210.180
L42.970 207.750
L44.590 207.750
M45.238 207.750 
L45.238 210.180
L46.129 210.180
A0.608,0.608 0 0,0 46.129,208.965
L45.238 208.965
L46.183 208.965
L46.723 207.750
M48.910 209.937 
A0.641,0.641 0 0,1 48.532,210.180
A1.525,1.525 0 0,1 47.776,210.153
A0.722,0.722 0 0,1 47.398,209.883
A0.494,0.494 0 0,1 47.641,209.127
L48.586 208.803
A0.494,0.494 0 0,0 48.829,208.047
A0.722,0.722 0 0,0 48.451,207.777
A1.525,1.525 0 0,0 47.695,207.750
A0.641,0.641 0 0,0 47.317,207.993"
fill="none" vector-effect="non-scaling-stroke" stroke="#ffffff" stroke-width="0.200mm" fpd:engraving_ral_9010="1" />
<path d="M65.000 208.560 
A0.864,0.864 0 0,1 66.728,208.560
L66.728 209.370
A0.864,0.864 0 0,1 65.000,209.370
L65.000 208.560
M67.376 207.750 
L67.376 210.180
L68.321 208.425
L69.266 210.180
L69.266 207.750
M69.914 207.750 
L69.914 210.180
L70.805 210.180
A0.608,0.608 0 0,0 70.805,208.965
L69.914 208.965
L70.859 208.965
L71.399 207.750
M72.020 208.560 
A0.864,0.864 0 0,1 73.748,208.560
L73.748 209.370
A0.864,0.864 0 0,1 72.020,209.370
L72.020 208.560
M74.396 208.965 L75.746 208.965
M76.016 210.180 
L74.396 210.180
L74.396 207.750
L76.016 207.750
M76.664 207.750 
L76.664 210.180
L77.555 210.180
A0.608,0.608 0 0,0 77.555,208.965
L76.664 208.965
M81.389 208.965 
A0.609,0.609 0 0,1 81.389,210.180
L80.498 210.180
L80.498 207.750
L81.524 207.750
A0.609,0.609 0 0,1 81.524,208.965
L80.498 208.965
M82.766 210.180 L82.766 207.750
M83.414 207.750 
L83.414 210.180
L85.034 207.750
L85.034 210.180
M85.682 207.750 
L85.682 210.180
L87.302 207.750
L87.302 210.180
M87.950 208.965 L89.300 208.965
M89.570 210.180 
L87.950 210.180
L87.950 207.750
L89.570 207.750
M90.218 207.750 
L90.218 210.180
L91.838 207.750
L91.838 210.180"
fill="none" vector-effect="non-scaling-stroke" stroke="#ffffff" stroke-width="0.200mm" fpd:engraving_ral_9010="1" />
<path d="M109.952 213.180 
L109.952 210.750
L109.952 211.965
L111.572 211.965
L111.572 210.750
L111.572 213.180
M112.490 211.425 L113.840 211.425
M112.220 210.750 L113.165 213.180L114.110 210.750
M114.758 213.180 L114.758 210.750L116.108 210.750
M116.756 213.180 
L118.376 213.180
L117.566 213.180
L117.566 210.750
M119.024 211.965 L120.374 211.965
M120.644 213.180 
L119.024 213.180
L119.024 210.750
L120.644 210.750
M123.290 211.425 L124.640 211.425
M123.020 210.750 L123.965 213.180L124.910 210.750
M125.558 211.965 L126.908 211.965
M127.178 213.180 L125.558 213.180L125.558 210.750
M127.826 210.750 
L127.826 213.180
L128.717 213.180
A0.608,0.608 0 0,0 128.717,211.965
L127.826 211.965
L128.771 211.965
L129.311 210.750
M129.932 211.560 
A0.864,0.864 0 0,1 131.660,211.560
L131.660 212.370
A0.864,0.864 0 0,1 129.932,212.370
L129.932 211.560
M132.308 211.965 L133.658 211.965
M133.928 213.180 
L132.308 213.180
L132.308 210.750
L133.928 210.750
M134.576 210.750 
L134.576 213.180
L135.467 213.180
A0.608,0.608 0 0,0 135.467,211.965
L134.576 211.965
M112.708 207.000 
L112.708 209.430
L113.599 209.430
A0.608,0.608 0 0,0 113.599,208.215
L112.708 208.215
M115.084 207.675 L116.434 207.675
M114.814 207.000 L115.759 209.430L116.704 207.000
M118.918 209.187 
A0.641,0.641 0 0,1 118.540,209.430
A1.525,1.525 0 0,1 117.784,209.403
A0.722,0.722 0 0,1 117.406,209.133
A0.494,0.494 0 0,1 117.649,208.377
L118.594 208.053
A0.494,0.494 0 0,0 118.837,207.297
A0.722,0.722 0 0,0 118.459,207.027
A1.525,1.525 0 0,0 117.703,207.000
A0.641,0.641 0 0,0 117.325,207.243
M121.132 209.187 
A0.641,0.641 0 0,1 120.754,209.430
A1.525,1.525 0 0,1 119.998,209.403
A0.722,0.722 0 0,1 119.620,209.133
A0.494,0.494 0 0,1 119.863,208.377
L120.808 208.053
A0.494,0.494 0 0,0 121.051,207.297
A0.722,0.722 0 0,0 120.673,207.027
A1.525,1.525 0 0,0 119.917,207.000
A0.641,0.641 0 0,0 119.539,207.243
M122.050 207.675 L123.400 207.675
M121.780 207.000 L122.725 209.430L123.670 207.000
M125.452 208.215 
L126.046 208.215
L126.046 207.810
A0.864,0.864 0 0,0 124.318,207.810
L124.318 208.620
A0.832,0.832 0 0,0 125.857,209.079
M126.694 209.430 L126.694 207.000
M127.342 208.215 L128.692 208.215
M128.962 209.430 
L127.342 209.430
L127.342 207.000
L128.962 207.000
M129.610 207.000 
L129.610 209.430
L130.501 209.430
A0.608,0.608 0 0,0 130.501,208.215
L129.610 208.215
L130.555 208.215
L131.095 207.000
M133.282 209.187 
A0.641,0.641 0 0,1 132.904,209.430
A1.525,1.525 0 0,1 132.148,209.403
A0.722,0.722 0 0,1 131.770,209.133
A0.494,0.494 0 0,1 132.013,208.377
L132.958 208.053
A0.494,0.494 0 0,0 133.201,207.297
A0.722,0.722 0 0,0 132.823,207.027
A1.525,1.525 0 0,0 132.067,207.000
A0.641,0.641 0 0,0 131.689,207.243"
fill="none" vector-effect="non-scaling-stroke" stroke="#ffffff" stroke-width="0.200mm" fpd:engraving_ral_9010="1" />
<path d="M19.770 155.925 L21.120 155.925
M19.500 155.250 L20.445 157.680L21.390 155.250
M22.038 157.680 L22.038 155.250L23.388 155.250
M24.306 155.925 L25.656 155.925
M24.036 155.250 L24.981 157.680L25.926 155.250
M26.574 155.250 
L26.574 157.680
L27.465 157.680
A0.608,0.608 0 0,0 27.465,156.465
L26.574 156.465
L27.519 156.465
L28.059 155.250
M28.680 155.250 
L28.680 157.680
L29.625 155.925
L30.570 157.680
L30.570 155.250
M31.218 157.680 L31.218 155.250L32.568 155.250
M33.216 157.680 L33.216 155.250
M35.349 157.329 
A0.792,0.792 0 0,1 33.864,156.924
L33.864 156.006
A0.811,0.811 0 0,1 35.430,155.709
M36.078 157.680 
L36.078 155.250
L36.078 156.465
L37.698 156.465
L37.698 155.250
L37.698 157.680
M38.346 157.680 
L39.966 157.680
L39.156 157.680
L39.156 155.250
M40.614 156.465 L41.964 156.465
M42.234 157.680 
L40.614 157.680
L40.614 155.250
L42.234 155.250
M42.882 155.250 
L42.882 157.680
L44.502 155.250
L44.502 157.680"
fill="none" vector-effect="non-scaling-stroke" stroke="#ffffff" stroke-width="0.200mm" fpd:engraving_ral_9010="1" />
<path d="M65.000 156.060 
A0.864,0.864 0 0,1 66.728,156.060
L66.728 156.870
A0.864,0.864 0 0,1 65.000,156.870
L65.000 156.060
M67.376 155.250 
L67.376 157.680
L68.321 155.925
L69.266 157.680
L69.266 155.250
M69.914 155.250 
L69.914 157.680
L70.805 157.680
A0.608,0.608 0 0,0 70.805,156.465
L69.914 156.465
L70.859 156.465
L71.399 155.250
M72.020 156.060 
A0.864,0.864 0 0,1 73.748,156.060
L73.748 156.870
A0.864,0.864 0 0,1 72.020,156.870
L72.020 156.060
M74.396 156.465 L75.746 156.465
M76.016 157.680 
L74.396 157.680
L74.396 155.250
L76.016 155.250
M76.664 155.250 
L76.664 157.680
L77.555 157.680
A0.608,0.608 0 0,0 77.555,156.465
L76.664 156.465
M81.389 156.465 
A0.609,0.609 0 0,1 81.389,157.680
L80.498 157.680
L80.498 155.250
L81.524 155.250
A0.609,0.609 0 0,1 81.524,156.465
L80.498 156.465
M82.766 157.680 
L82.766 156.006
A0.810,0.810 0 0,1 84.386,156.006
L84.386 157.680
M85.034 157.680 L85.034 155.250
M85.682 157.680 
L87.302 157.680
L86.492 157.680
L86.492 155.250
M87.950 156.465 L89.300 156.465
M89.570 157.680 
L87.950 157.680
L87.950 155.250
L89.570 155.250
M90.218 155.250 
L90.218 157.680
L91.838 155.250
L91.838 157.680"
fill="none" vector-effect="non-scaling-stroke" stroke="#ffffff" stroke-width="0.200mm" fpd:engraving_ral_9010="1" />
<path d="M116.042 161.680 
L116.042 159.250
L116.042 160.465
L117.662 160.465
L117.662 159.250
L117.662 161.680
M118.580 159.925 L119.930 159.925
M118.310 159.250 L119.255 161.680L120.200 159.250
M120.848 161.680 L120.848 159.250L122.198 159.250
M122.846 161.680 
L124.466 161.680
L123.656 161.680
L123.656 159.250
M125.114 160.465 L126.464 160.465
M126.734 161.680 
L125.114 161.680
L125.114 159.250
L126.734 159.250
M128.948 161.437 
A0.641,0.641 0 0,1 128.570,161.680
A1.525,1.525 0 0,1 127.814,161.653
A0.722,0.722 0 0,1 127.436,161.383
A0.494,0.494 0 0,1 127.679,160.627
L128.624 160.303
A0.494,0.494 0 0,0 128.867,159.547
A0.722,0.722 0 0,0 128.489,159.277
A1.525,1.525 0 0,0 127.733,159.250
A0.641,0.641 0 0,0 127.355,159.493
M109.270 157.930 
L110.107 157.930
A0.814,0.814 0 0,0 110.890,157.120
L110.890 156.310
A0.782,0.782 0 0,0 110.107,155.500
L109.270 155.500
L109.270 157.930
M111.538 156.310 
A0.864,0.864 0 0,1 113.266,156.310
L113.266 157.120
A0.864,0.864 0 0,1 111.538,157.120
L111.538 156.310
M113.914 156.310 
A0.864,0.864 0 0,1 115.642,156.310
L115.642 157.120
A0.864,0.864 0 0,1 113.914,157.120
L113.914 156.310
M116.290 155.500 
L116.290 157.930
L117.181 157.930
A0.608,0.608 0 0,0 117.181,156.715
L116.290 156.715
L117.235 156.715
L117.775 155.500
M119.287 156.715 
A0.609,0.609 0 0,1 119.287,157.930
L118.396 157.930
L118.396 155.500
L119.422 155.500
A0.609,0.609 0 0,1 119.422,156.715
L118.396 156.715
M120.664 157.930 L120.664 155.500L122.014 155.500
M122.932 156.175 L124.282 156.175
M122.662 155.500 L123.607 157.930L124.552 155.500
M125.200 157.930 
L126.037 157.930
A0.814,0.814 0 0,0 126.820,157.120
L126.820 156.310
A0.782,0.782 0 0,0 126.037,155.500
L125.200 155.500
L125.200 157.930
M127.468 156.715 L128.818 156.715
M129.088 157.930 
L127.468 157.930
L127.468 155.500
L129.088 155.500
M129.736 155.500 
L129.736 157.930
L130.627 157.930
A0.608,0.608 0 0,0 130.627,156.715
L129.736 156.715
L130.681 156.715
L131.221 155.500
M131.842 156.715 L133.192 156.715
M133.462 157.930 
L131.842 157.930
L131.842 155.500
L133.462 155.500
M134.110 155.500 
L134.110 157.930
L135.730 155.500
L135.730 157.930"
fill="none" vector-effect="non-scaling-stroke" stroke="#ffffff" stroke-width="0.200mm" fpd:engraving_ral_9010="1" />
<rect x="9.204" y="15.285" width="580.662" height="200.200" rx="0.000"
fill="none" vector-effect="non-scaling-stroke" stroke="#ffffff" stroke-width="0.200mm" fpd:engraving_ral_9010="1" 
/>
<path d="M144.500 115.500 L9.500 115.500"
fill="none" vector-effect="non-scaling-stroke" stroke="#ffffff" stroke-width="0.200mm" fpd:engraving_ral_9010="1" />
<path d="M99.750 215.500 L99.750 115.502"
fill="none" vector-effect="non-scaling-stroke" stroke="#ffffff" stroke-width="0.200mm" fpd:engraving_ral_9010="1" />
<path d="M54.750 215.500 L54.750 115.502"
fill="none" vector-effect="non-scaling-stroke" stroke="#ffffff" stroke-width="0.200mm" fpd:engraving_ral_9010="1" />
<circle cx="9.500" cy="198.000" r="7.500"
fill="none" vector-effect="non-scaling-stroke" stroke="#ffffff" stroke-width="0.200mm" fpd:engraving_ral_9010="1" 
/>
<rect x="1.250" y="190.247" width="8.000" height="16.006" rx="0.000"
fill="#000000" vector-effect="non-scaling-stroke" stroke="#000000" stroke-width="0.200mm" fpd:engraving_ral_9005="1" 
/>
<rect x="2.250" y="190.756" width="8.000" height="14.488" rx="0.000"
fill="#000000" vector-effect="non-scaling-stroke" stroke="#000000" stroke-width="0.200mm" fpd:engraving_ral_9005="1" 
/>
<path d="M14.500 106.560 
A0.864,0.864 0 0,1 16.228,106.560
L16.228 107.370
A0.864,0.864 0 0,1 14.500,107.370
L14.500 106.560
M16.876 105.750 
L16.876 108.180
L18.496 105.750
L18.496 108.180
M19.144 108.180 
L20.764 108.180
L19.954 108.180
L19.954 105.750
M22.546 106.965 
L23.140 106.965
L23.140 106.560
A0.864,0.864 0 0,0 21.412,106.560
L21.412 107.370
A0.832,0.832 0 0,0 22.951,107.829
M23.788 105.750 
L23.788 108.180
L24.679 108.180
A0.608,0.608 0 0,0 24.679,106.965
L23.788 106.965
L24.733 106.965
L25.273 105.750
M25.894 106.965 L27.244 106.965
M27.514 108.180 
L25.894 108.180
L25.894 105.750
L27.514 105.750
M28.162 105.750 
L28.162 108.180
L29.782 105.750
L29.782 108.180
M30.430 108.180 
L31.267 108.180
A0.814,0.814 0 0,0 32.050,107.370
L32.050 106.560
A0.782,0.782 0 0,0 31.267,105.750
L30.430 105.750
L30.430 108.180
M32.698 106.965 L34.048 106.965
M34.318 108.180 
L32.698 108.180
L32.698 105.750
L34.318 105.750
M34.966 108.180 L34.966 105.750L36.316 105.750
M36.964 106.965 L38.314 106.965
M38.584 108.180 
L36.964 108.180
L36.964 105.750
L38.584 105.750
M39.232 105.750 
L39.232 108.180
L40.852 105.750
L40.852 108.180
M43.363 108.180 A0.609,0.609 0 0,0 43.228,107.775
M43.795 107.775 A0.609,0.609 0 0,1 43.930,108.180
M44.578 108.180 L44.578 105.750L45.928 105.750
M46.711 108.180 A0.609,0.609 0 0,0 46.576,107.775
M47.143 107.775 A0.609,0.609 0 0,1 47.278,108.180"
fill="none" vector-effect="non-scaling-stroke" stroke="#ffffff" stroke-width="0.200mm" fpd:engraving_ral_9010="1" />
<path d="M64.729 112.180 
L65.566 112.180
A0.814,0.814 0 0,0 66.349,111.370
L66.349 110.560
A0.782,0.782 0 0,0 65.566,109.750
L64.729 109.750
L64.729 112.180
M66.997 110.965 L68.347 110.965
M68.617 112.180 
L66.997 112.180
L66.997 109.750
L68.617 109.750
M69.265 112.180 
L69.265 110.506
A0.810,0.810 0 0,1 70.885,110.506
L70.885 112.180
M71.533 109.750 
L71.533 112.180
L72.424 112.180
A0.608,0.608 0 0,0 72.424,110.965
L71.533 110.965
L72.478 110.965
L73.018 109.750
M74.530 110.965 
A0.609,0.609 0 0,1 74.530,112.180
L73.639 112.180
L73.639 109.750
L74.665 109.750
A0.609,0.609 0 0,1 74.665,110.965
L73.639 110.965
M75.907 110.965 L77.257 110.965
M77.527 112.180 
L75.907 112.180
L75.907 109.750
L77.527 109.750
M78.175 112.180 
L79.012 112.180
A0.814,0.814 0 0,0 79.795,111.370
L79.795 110.560
A0.782,0.782 0 0,0 79.012,109.750
L78.175 109.750
L78.175 112.180
M80.443 112.180 L80.443 109.750
M81.091 110.965 L82.441 110.965
M82.711 112.180 
L81.091 112.180
L81.091 109.750
L82.711 109.750
M83.359 109.750 
L83.359 112.180
L84.979 109.750
L84.979 112.180
M85.627 112.180 L85.627 109.750
M86.275 109.750 
L86.275 112.180
L87.895 109.750
L87.895 112.180
M89.677 110.965 
L90.271 110.965
L90.271 110.560
A0.864,0.864 0 0,0 88.543,110.560
L88.543 111.370
A0.832,0.832 0 0,0 90.082,111.829
M60.355 108.430 
L61.192 108.430
A0.814,0.814 0 0,0 61.975,107.620
L61.975 106.810
A0.782,0.782 0 0,0 61.192,106.000
L60.355 106.000
L60.355 108.430
M62.623 107.215 L63.973 107.215
M64.243 108.430 
L62.623 108.430
L62.623 106.000
L64.243 106.000
M64.891 108.430 
L64.891 106.756
A0.810,0.810 0 0,1 66.511,106.756
L66.511 108.430
M67.159 106.000 
L67.159 108.430
L68.050 108.430
A0.608,0.608 0 0,0 68.050,107.215
L67.159 107.215
L68.104 107.215
L68.644 106.000
M69.265 107.215 L70.615 107.215
M70.885 108.430 
L69.265 108.430
L69.265 106.000
L70.885 106.000
M71.533 106.000 
L71.533 108.430
L73.153 106.000
L73.153 108.430
M78.391 107.215 
L78.985 107.215
L78.985 106.810
A0.864,0.864 0 0,0 77.257,106.810
L77.257 107.620
A0.832,0.832 0 0,0 78.796,108.079
M79.633 107.215 L80.983 107.215
M81.253 108.430 
L79.633 108.430
L79.633 106.000
L81.253 106.000
M83.467 108.187 
A0.641,0.641 0 0,1 83.089,108.430
A1.525,1.525 0 0,1 82.333,108.403
A0.722,0.722 0 0,1 81.955,108.133
A0.494,0.494 0 0,1 82.198,107.377
L83.143 107.053
A0.494,0.494 0 0,0 83.386,106.297
A0.722,0.722 0 0,0 83.008,106.027
A1.525,1.525 0 0,0 82.252,106.000
A0.641,0.641 0 0,0 81.874,106.243
M84.115 108.430 L84.115 106.000L85.465 106.000
M86.113 106.810 
A0.864,0.864 0 0,1 87.841,106.810
L87.841 107.620
A0.864,0.864 0 0,1 86.113,107.620
L86.113 106.810
M88.489 108.430 
L90.109 108.430
L89.299 108.430
L89.299 106.000
M90.757 107.215 L92.107 107.215
M92.377 108.430 
L90.757 108.430
L90.757 106.000
L92.377 106.000
M93.025 106.000 
L93.025 108.430
L94.645 106.000
L94.645 108.430"
fill="none" vector-effect="non-scaling-stroke" stroke="#ffffff" stroke-width="0.200mm" fpd:engraving_ral_9010="1" />
<path d="M19.500 54.060 
A0.864,0.864 0 0,1 21.228,54.060
L21.228 54.870
A0.864,0.864 0 0,1 19.500,54.870
L19.500 54.060
M21.876 53.250 
L21.876 55.680
L22.767 55.680
A0.608,0.608 0 0,0 22.767,54.465
L21.876 54.465
M23.982 54.465 L25.332 54.465
M25.602 55.680 
L23.982 55.680
L23.982 53.250
L25.602 53.250
M26.250 53.250 
L26.250 55.680
L27.870 53.250
L27.870 55.680
M28.518 54.465 L29.868 54.465
M30.138 55.680 
L28.518 55.680
L28.518 53.250
L30.138 53.250
M30.786 53.250 
L30.786 55.680
L32.406 53.250
L32.406 55.680
M34.917 55.680 A0.609,0.609 0 0,0 34.782,55.275
M35.349 55.275 A0.609,0.609 0 0,1 35.484,55.680
M36.132 55.680 L36.132 53.250L37.482 53.250
M38.265 55.680 A0.609,0.609 0 0,0 38.130,55.275
M38.697 55.275 A0.609,0.609 0 0,1 38.832,55.680"
fill="none" vector-effect="non-scaling-stroke" stroke="#ffffff" stroke-width="0.200mm" fpd:engraving_ral_9010="1" />
<path d="M72.604 55.437 
A0.641,0.641 0 0,1 72.226,55.680
A1.525,1.525 0 0,1 71.470,55.653
A0.722,0.722 0 0,1 71.092,55.383
A0.494,0.494 0 0,1 71.335,54.627
L72.280 54.303
A0.494,0.494 0 0,0 72.523,53.547
A0.722,0.722 0 0,0 72.145,53.277
A1.525,1.525 0 0,0 71.389,53.250
A0.641,0.641 0 0,0 71.011,53.493
M73.252 55.680 L73.252 53.250L74.602 53.250
M75.250 55.680 
L75.250 54.006
A0.810,0.810 0 0,1 76.870,54.006
L76.870 55.680
M77.518 55.680 L77.518 53.250
M78.166 55.680 
L79.786 55.680
L78.976 55.680
L78.976 53.250
M80.434 54.465 L81.784 54.465
M82.054 55.680 
L80.434 55.680
L80.434 53.250
L82.054 53.250
M82.702 53.250 
L82.702 55.680
L84.322 53.250
L84.322 55.680"
fill="none" vector-effect="non-scaling-stroke" stroke="#ffffff" stroke-width="0.200mm" fpd:engraving_ral_9010="1" />
<path d="M113.780 54.060 
A0.864,0.864 0 0,1 115.508,54.060
L115.508 54.870
A0.864,0.864 0 0,1 113.780,54.870
L113.780 54.060
M116.156 53.250 
L116.156 55.680
L117.047 55.680
A0.608,0.608 0 0,0 117.047,54.465
L116.156 54.465
M118.262 54.465 L119.612 54.465
M119.882 55.680 
L118.262 55.680
L118.262 53.250
L119.882 53.250
M120.530 53.250 
L120.530 55.680
L122.150 53.250
L122.150 55.680
M122.798 54.465 L124.148 54.465
M124.418 55.680 
L122.798 55.680
L122.798 53.250
L124.418 53.250
M125.066 53.250 
L125.066 55.680
L126.686 53.250
L126.686 55.680
M129.197 55.680 A0.609,0.609 0 0,0 129.062,55.275
M129.629 55.275 A0.609,0.609 0 0,1 129.764,55.680
M130.412 53.250 
L130.412 55.680
L131.303 55.680
A0.608,0.608 0 0,0 131.303,54.465
L130.412 54.465
L131.357 54.465
L131.897 53.250
M132.653 55.680 A0.609,0.609 0 0,0 132.518,55.275
M133.085 55.275 A0.609,0.609 0 0,1 133.220,55.680"
fill="none" vector-effect="non-scaling-stroke" stroke="#ffffff" stroke-width="0.200mm" fpd:engraving_ral_9010="1" />
<path d="M107.000 106.560 
A0.864,0.864 0 0,1 108.728,106.560
L108.728 107.370
A0.864,0.864 0 0,1 107.000,107.370
L107.000 106.560
M109.376 105.750 
L109.376 108.180
L110.996 105.750
L110.996 108.180
M111.644 108.180 
L113.264 108.180
L112.454 108.180
L112.454 105.750
M115.046 106.965 
L115.640 106.965
L115.640 106.560
A0.864,0.864 0 0,0 113.912,106.560
L113.912 107.370
A0.832,0.832 0 0,0 115.451,107.829
M116.288 105.750 
L116.288 108.180
L117.179 108.180
A0.608,0.608 0 0,0 117.179,106.965
L116.288 106.965
L117.233 106.965
L117.773 105.750
M118.394 106.965 L119.744 106.965
M120.014 108.180 
L118.394 108.180
L118.394 105.750
L120.014 105.750
M120.662 105.750 
L120.662 108.180
L122.282 105.750
L122.282 108.180
M122.930 108.180 
L123.767 108.180
A0.814,0.814 0 0,0 124.550,107.370
L124.550 106.560
A0.782,0.782 0 0,0 123.767,105.750
L122.930 105.750
L122.930 108.180
M125.198 106.965 L126.548 106.965
M126.818 108.180 
L125.198 108.180
L125.198 105.750
L126.818 105.750
M127.466 108.180 L127.466 105.750L128.816 105.750
M129.464 106.965 L130.814 106.965
M131.084 108.180 
L129.464 108.180
L129.464 105.750
L131.084 105.750
M131.732 105.750 
L131.732 108.180
L133.352 105.750
L133.352 108.180
M135.863 108.180 A0.609,0.609 0 0,0 135.728,107.775
M136.295 107.775 A0.609,0.609 0 0,1 136.430,108.180
M137.078 105.750 
L137.078 108.180
L137.969 108.180
A0.608,0.608 0 0,0 137.969,106.965
L137.078 106.965
L138.023 106.965
L138.563 105.750
M139.319 108.180 A0.609,0.609 0 0,0 139.184,107.775
M139.751 107.775 A0.609,0.609 0 0,1 139.886,108.180"
fill="none" vector-effect="non-scaling-stroke" stroke="#ffffff" stroke-width="0.200mm" fpd:engraving_ral_9010="1" />
<path d="M161.500 155.250 
L161.500 157.680
L162.391 157.680
A0.608,0.608 0 0,0 162.391,156.465
L161.500 156.465
L162.445 156.465
L162.985 155.250
M163.606 156.465 L164.956 156.465
M165.226 157.680 
L163.606 157.680
L163.606 155.250
L165.226 155.250
M165.874 155.250 
L165.874 157.680
L166.819 155.925
L167.764 157.680
L167.764 155.250
M168.412 155.250 
L168.412 157.680
L169.357 155.925
L170.302 157.680
L170.302 155.250
M170.950 156.465 L172.300 156.465
M172.570 157.680 
L170.950 157.680
L170.950 155.250
L172.570 155.250
M173.218 155.250 
L173.218 157.680
L174.838 155.250
L174.838 157.680"
fill="none" vector-effect="non-scaling-stroke" stroke="#ffffff" stroke-width="0.200mm" fpd:engraving_ral_9010="1" />
<path d="M159.000 53.250 
L159.000 55.680
L159.891 55.680
A0.608,0.608 0 0,0 159.891,54.465
L159.000 54.465
M161.106 54.465 L162.456 54.465
M162.726 55.680 
L161.106 55.680
L161.106 53.250
L162.726 53.250
M163.374 53.250 
L163.374 55.680
L164.265 55.680
A0.608,0.608 0 0,0 164.265,54.465
L163.374 54.465
L164.319 54.465
L164.859 53.250
M165.480 53.250 
L165.480 55.680
L166.425 53.925
L167.370 55.680
L167.370 53.250
M168.018 55.680 L168.018 53.250
M170.232 55.437 
A0.641,0.641 0 0,1 169.854,55.680
A1.525,1.525 0 0,1 169.098,55.653
A0.722,0.722 0 0,1 168.720,55.383
A0.494,0.494 0 0,1 168.963,54.627
L169.908 54.303
A0.494,0.494 0 0,0 170.151,53.547
A0.722,0.722 0 0,0 169.773,53.277
A1.525,1.525 0 0,0 169.017,53.250
A0.641,0.641 0 0,0 168.639,53.493
M172.446 55.437 
A0.641,0.641 0 0,1 172.068,55.680
A1.525,1.525 0 0,1 171.312,55.653
A0.722,0.722 0 0,1 170.934,55.383
A0.494,0.494 0 0,1 171.177,54.627
L172.122 54.303
A0.494,0.494 0 0,0 172.365,53.547
A0.722,0.722 0 0,0 171.987,53.277
A1.525,1.525 0 0,0 171.231,53.250
A0.641,0.641 0 0,0 170.853,53.493
M173.094 55.680 L173.094 53.250
M173.742 54.465 L175.092 54.465
M175.362 55.680 
L173.742 55.680
L173.742 53.250
L175.362 53.250
M176.010 54.465 L177.360 54.465
M177.630 55.680 L176.010 55.680L176.010 53.250"
fill="none" vector-effect="non-scaling-stroke" stroke="#ffffff" stroke-width="0.200mm" fpd:engraving_ral_9010="1" />
<path d="M156.270 106.425 L157.620 106.425
M156.000 105.750 L156.945 108.180L157.890 105.750
M158.538 105.750 L158.538 105.885
M159.186 108.180 
L160.806 108.180
L159.996 108.180
L159.996 105.750
M161.454 105.750 L161.454 105.885
M162.993 106.965 
A0.609,0.609 0 0,1 162.993,108.180
L162.102 108.180
L162.102 105.750
L163.128 105.750
A0.609,0.609 0 0,1 163.128,106.965
L162.102 106.965
M164.370 105.750 L164.370 105.885
M168.312 107.937 
A0.641,0.641 0 0,1 167.934,108.180
A1.525,1.525 0 0,1 167.178,108.153
A0.722,0.722 0 0,1 166.800,107.883
A0.494,0.494 0 0,1 167.043,107.127
L167.988 106.803
A0.494,0.494 0 0,0 168.231,106.047
A0.722,0.722 0 0,0 167.853,105.777
A1.525,1.525 0 0,0 167.097,105.750
A0.641,0.641 0 0,0 166.719,105.993
M168.960 108.180 
L170.580 108.180
L169.770 108.180
L169.770 105.750
M171.228 106.560 
A0.864,0.864 0 0,1 172.956,106.560
L172.956 107.370
A0.864,0.864 0 0,1 171.228,107.370
L171.228 106.560
M173.604 105.750 
L173.604 108.180
L174.495 108.180
A0.608,0.608 0 0,0 174.495,106.965
L173.604 106.965
L174.549 106.965
L175.089 105.750
M175.710 108.180 L175.710 105.750
M176.358 105.750 
L176.358 108.180
L177.978 105.750
L177.978 108.180
M179.760 106.965 
L180.354 106.965
L180.354 106.560
A0.864,0.864 0 0,0 178.626,106.560
L178.626 107.370
A0.832,0.832 0 0,0 180.165,107.829"
fill="none" vector-effect="non-scaling-stroke" stroke="#ffffff" stroke-width="0.200mm" fpd:engraving_ral_9010="1" />
<path d="M145.000 215.250 L145.000 15.250"
fill="none" vector-effect="non-scaling-stroke" stroke="#ffffff" stroke-width="0.200mm" fpd:engraving_ral_9010="1" />
<circle cx="9.500" cy="26.500" r="7.500"
fill="none" vector-effect="non-scaling-stroke" stroke="#ffffff" stroke-width="0.200mm" fpd:engraving_ral_9010="1" 
/>
<rect x="1.250" y="18.747" width="8.000" height="16.006" rx="0.000"
fill="#000000" vector-effect="non-scaling-stroke" stroke="#000000" stroke-width="0.200mm" fpd:engraving_ral_9005="1" 
/>
<rect x="2.250" y="19.256" width="8.000" height="14.488" rx="0.000"
fill="#000000" vector-effect="non-scaling-stroke" stroke="#000000" stroke-width="0.200mm" fpd:engraving_ral_9005="1" 
/>
<path d="M657.000 208.560 
A0.864,0.864 0 0,1 658.728,208.560
L658.728 209.370
A0.864,0.864 0 0,1 657.000,209.370
L657.000 208.560
M659.376 207.750 
L659.376 210.180
L660.321 208.425
L661.266 210.180
L661.266 207.750
M661.914 207.750 
L661.914 210.180
L662.805 210.180
A0.608,0.608 0 0,0 662.805,208.965
L661.914 208.965
L662.859 208.965
L663.399 207.750
M664.020 208.560 
A0.864,0.864 0 0,1 665.748,208.560
L665.748 209.370
A0.864,0.864 0 0,1 664.020,209.370
L664.020 208.560
M666.396 208.965 L667.746 208.965
M668.016 210.180 
L666.396 210.180
L666.396 207.750
L668.016 207.750
M668.664 207.750 
L668.664 210.180
L669.555 210.180
A0.608,0.608 0 0,0 669.555,208.965
L668.664 208.965
M673.389 208.965 
A0.609,0.609 0 0,1 673.389,210.180
L672.498 210.180
L672.498 207.750
L673.524 207.750
A0.609,0.609 0 0,1 673.524,208.965
L672.498 208.965
M674.766 210.180 L674.766 207.750
M675.414 207.750 
L675.414 210.180
L677.034 207.750
L677.034 210.180
M677.682 207.750 
L677.682 210.180
L679.302 207.750
L679.302 210.180
M679.950 208.965 L681.300 208.965
M681.570 210.180 
L679.950 210.180
L679.950 207.750
L681.570 207.750
M682.218 207.750 
L682.218 210.180
L683.838 207.750
L683.838 210.180"
fill="none" vector-effect="non-scaling-stroke" stroke="#ffffff" stroke-width="0.200mm" fpd:engraving_ral_9010="1" />
<path d="M466.823 211.965 L468.173 211.965
M468.443 213.180 L466.823 213.180L466.823 210.750
M469.091 210.750 
L469.091 213.180
L469.982 213.180
A0.608,0.608 0 0,0 469.982,211.965
L469.091 211.965
L470.036 211.965
L470.576 210.750
M471.197 211.560 
A0.864,0.864 0 0,1 472.925,211.560
L472.925 212.370
A0.864,0.864 0 0,1 471.197,212.370
L471.197 211.560
M473.573 210.750 
L473.573 213.180
L475.193 210.750
L475.193 213.180
M475.841 213.180 
L477.461 213.180
L476.651 213.180
L476.651 210.750
M478.109 213.180 L478.109 210.750L479.459 210.750
M480.377 211.425 L481.727 211.425
M480.107 210.750 L481.052 213.180L481.997 210.750
M482.645 210.750 
L482.645 213.180
L483.590 211.425
L484.535 213.180
L484.535 210.750
M485.183 210.750 
L485.183 213.180
L486.074 213.180
A0.608,0.608 0 0,0 486.074,211.965
L485.183 211.965
M487.289 211.965 L488.639 211.965
M488.909 213.180 
L487.289 213.180
L487.289 210.750
L488.909 210.750
M489.557 210.750 
L489.557 213.180
L491.177 210.750
L491.177 213.180
M476.003 209.430 L476.813 207.000L477.623 209.430
M478.271 207.810 
A0.864,0.864 0 0,1 479.999,207.810
L479.999 208.620
A0.864,0.864 0 0,1 478.271,208.620
L478.271 207.810
M480.647 209.430 L480.647 207.000L481.997 207.000"
fill="none" vector-effect="non-scaling-stroke" stroke="#ffffff" stroke-width="0.200mm" fpd:engraving_ral_9010="1" />
<path d="M512.500 155.250 
L512.500 157.680
L513.391 157.680
A0.608,0.608 0 0,0 513.391,156.465
L512.500 156.465
M514.876 155.925 L516.226 155.925
M514.606 155.250 L515.551 157.680L516.496 155.250
M517.144 155.250 
L517.144 157.680
L518.764 155.250
L518.764 157.680
M519.412 157.680 
L521.032 157.680
L520.222 157.680
L520.222 155.250
M521.680 156.060 
A0.864,0.864 0 0,1 523.408,156.060
L523.408 156.870
A0.864,0.864 0 0,1 521.680,156.870
L521.680 156.060
M525.190 156.465 
L525.784 156.465
L525.784 156.060
A0.864,0.864 0 0,0 524.056,156.060
L524.056 156.870
A0.832,0.832 0 0,0 525.595,157.329
M526.432 155.250 
L526.432 157.680
L527.323 157.680
A0.608,0.608 0 0,0 527.323,156.465
L526.432 156.465
L527.377 156.465
L527.917 155.250
M528.808 155.925 L530.158 155.925
M528.538 155.250 L529.483 157.680L530.428 155.250
M531.346 155.925 L532.696 155.925
M531.076 155.250 L532.021 157.680L532.966 155.250
M533.614 156.465 L534.964 156.465
M535.234 157.680 L533.614 157.680L533.614 155.250
M537.610 156.060 
A0.864,0.864 0 0,1 539.338,156.060
L539.338 156.870
A0.864,0.864 0 0,1 537.610,156.870
L537.610 156.060
M539.986 155.250 
L539.986 157.680
L540.877 157.680
A0.608,0.608 0 0,0 540.877,156.465
L539.986 156.465"
fill="none" vector-effect="non-scaling-stroke" stroke="#ffffff" stroke-width="0.200mm" fpd:engraving_ral_9010="1" />
<path d="M657.000 156.060 
A0.864,0.864 0 0,1 658.728,156.060
L658.728 156.870
A0.864,0.864 0 0,1 657.000,156.870
L657.000 156.060
M659.376 155.250 
L659.376 157.680
L660.321 155.925
L661.266 157.680
L661.266 155.250
M661.914 155.250 
L661.914 157.680
L662.805 157.680
A0.608,0.608 0 0,0 662.805,156.465
L661.914 156.465
L662.859 156.465
L663.399 155.250
M664.020 156.060 
A0.864,0.864 0 0,1 665.748,156.060
L665.748 156.870
A0.864,0.864 0 0,1 664.020,156.870
L664.020 156.060
M666.396 156.465 L667.746 156.465
M668.016 157.680 
L666.396 157.680
L666.396 155.250
L668.016 155.250
M668.664 155.250 
L668.664 157.680
L669.555 157.680
A0.608,0.608 0 0,0 669.555,156.465
L668.664 156.465
M673.389 156.465 
A0.609,0.609 0 0,1 673.389,157.680
L672.498 157.680
L672.498 155.250
L673.524 155.250
A0.609,0.609 0 0,1 673.524,156.465
L672.498 156.465
M674.766 157.680 
L674.766 156.006
A0.810,0.810 0 0,1 676.386,156.006
L676.386 157.680
M677.034 157.680 L677.034 155.250
M677.682 157.680 
L679.302 157.680
L678.492 157.680
L678.492 155.250
M679.950 156.465 L681.300 156.465
M681.570 157.680 
L679.950 157.680
L679.950 155.250
L681.570 155.250
M682.218 155.250 
L682.218 157.680
L683.838 155.250
L683.838 157.680"
fill="none" vector-effect="non-scaling-stroke" stroke="#ffffff" stroke-width="0.200mm" fpd:engraving_ral_9010="1" />
<path d="M503.831 115.555 L503.831 15.557"
fill="none" vector-effect="non-scaling-stroke" stroke="#ffffff" stroke-width="0.200mm" fpd:engraving_ral_9010="1" />
<path d="M656.729 112.180 
L657.566 112.180
A0.814,0.814 0 0,0 658.349,111.370
L658.349 110.560
A0.782,0.782 0 0,0 657.566,109.750
L656.729 109.750
L656.729 112.180
M658.997 110.965 L660.347 110.965
M660.617 112.180 
L658.997 112.180
L658.997 109.750
L660.617 109.750
M661.265 112.180 
L661.265 110.506
A0.810,0.810 0 0,1 662.885,110.506
L662.885 112.180
M663.533 109.750 
L663.533 112.180
L664.424 112.180
A0.608,0.608 0 0,0 664.424,110.965
L663.533 110.965
L664.478 110.965
L665.018 109.750
M666.530 110.965 
A0.609,0.609 0 0,1 666.530,112.180
L665.639 112.180
L665.639 109.750
L666.665 109.750
A0.609,0.609 0 0,1 666.665,110.965
L665.639 110.965
M667.907 110.965 L669.257 110.965
M669.527 112.180 
L667.907 112.180
L667.907 109.750
L669.527 109.750
M670.175 112.180 
L671.012 112.180
A0.814,0.814 0 0,0 671.795,111.370
L671.795 110.560
A0.782,0.782 0 0,0 671.012,109.750
L670.175 109.750
L670.175 112.180
M672.443 112.180 L672.443 109.750
M673.091 110.965 L674.441 110.965
M674.711 112.180 
L673.091 112.180
L673.091 109.750
L674.711 109.750
M675.359 109.750 
L675.359 112.180
L676.979 109.750
L676.979 112.180
M677.627 112.180 L677.627 109.750
M678.275 109.750 
L678.275 112.180
L679.895 109.750
L679.895 112.180
M681.677 110.965 
L682.271 110.965
L682.271 110.560
A0.864,0.864 0 0,0 680.543,110.560
L680.543 111.370
A0.832,0.832 0 0,0 682.082,111.829
M652.355 108.430 
L653.192 108.430
A0.814,0.814 0 0,0 653.975,107.620
L653.975 106.810
A0.782,0.782 0 0,0 653.192,106.000
L652.355 106.000
L652.355 108.430
M654.623 107.215 L655.973 107.215
M656.243 108.430 
L654.623 108.430
L654.623 106.000
L656.243 106.000
M656.891 108.430 
L656.891 106.756
A0.810,0.810 0 0,1 658.511,106.756
L658.511 108.430
M659.159 106.000 
L659.159 108.430
L660.050 108.430
A0.608,0.608 0 0,0 660.050,107.215
L659.159 107.215
L660.104 107.215
L660.644 106.000
M661.265 107.215 L662.615 107.215
M662.885 108.430 
L661.265 108.430
L661.265 106.000
L662.885 106.000
M663.533 106.000 
L663.533 108.430
L665.153 106.000
L665.153 108.430
M670.391 107.215 
L670.985 107.215
L670.985 106.810
A0.864,0.864 0 0,0 669.257,106.810
L669.257 107.620
A0.832,0.832 0 0,0 670.796,108.079
M671.633 107.215 L672.983 107.215
M673.253 108.430 
L671.633 108.430
L671.633 106.000
L673.253 106.000
M675.467 108.187 
A0.641,0.641 0 0,1 675.089,108.430
A1.525,1.525 0 0,1 674.333,108.403
A0.722,0.722 0 0,1 673.955,108.133
A0.494,0.494 0 0,1 674.198,107.377
L675.143 107.053
A0.494,0.494 0 0,0 675.386,106.297
A0.722,0.722 0 0,0 675.008,106.027
A1.525,1.525 0 0,0 674.252,106.000
A0.641,0.641 0 0,0 673.874,106.243
M676.115 108.430 L676.115 106.000L677.465 106.000
M678.113 106.810 
A0.864,0.864 0 0,1 679.841,106.810
L679.841 107.620
A0.864,0.864 0 0,1 678.113,107.620
L678.113 106.810
M680.489 108.430 
L682.109 108.430
L681.299 108.430
L681.299 106.000
M682.757 107.215 L684.107 107.215
M684.377 108.430 
L682.757 108.430
L682.757 106.000
L684.377 106.000
M685.025 106.000 
L685.025 108.430
L686.645 106.000
L686.645 108.430"
fill="none" vector-effect="non-scaling-stroke" stroke="#ffffff" stroke-width="0.200mm" fpd:engraving_ral_9010="1" />
<path d="M534.731 59.437 
A0.641,0.641 0 0,1 534.353,59.680
A1.525,1.525 0 0,1 533.597,59.653
A0.722,0.722 0 0,1 533.219,59.383
A0.494,0.494 0 0,1 533.462,58.627
L534.407 58.303
A0.494,0.494 0 0,0 534.650,57.547
A0.722,0.722 0 0,0 534.272,57.277
A1.525,1.525 0 0,0 533.516,57.250
A0.641,0.641 0 0,0 533.138,57.493
M535.379 59.680 
L536.999 59.680
L536.189 59.680
L536.189 57.250
M537.647 57.250 
L537.647 59.680
L538.538 59.680
A0.608,0.608 0 0,0 538.538,58.465
L537.647 58.465
L538.592 58.465
L539.132 57.250
M539.753 58.060 
A0.864,0.864 0 0,1 541.481,58.060
L541.481 58.870
A0.864,0.864 0 0,1 539.753,58.870
L539.753 58.060
M542.129 58.060 
A0.864,0.864 0 0,1 543.857,58.060
L543.857 58.870
A0.864,0.864 0 0,1 542.129,58.870
L542.129 58.060
M544.505 57.250 
L544.505 59.680
L545.450 57.925
L546.395 59.680
L546.395 57.250
M547.313 57.925 L548.663 57.925
M547.043 57.250 L547.988 59.680L548.933 57.250
M549.581 58.465 L550.931 58.465
M551.201 59.680 L549.581 59.680L549.581 57.250
M551.849 57.250 
L551.849 59.680
L553.469 57.250
L553.469 59.680
M554.117 58.465 L555.467 58.465
M555.737 59.680 
L554.117 59.680
L554.117 57.250
L555.737 57.250
M556.385 57.250 
L556.385 59.680
L557.330 57.925
L558.275 59.680
L558.275 57.250
M558.923 58.465 L560.273 58.465
M560.543 59.680 
L558.923 59.680
L558.923 57.250
L560.543 57.250
M561.191 57.250 
L561.191 59.680
L562.082 59.680
A0.608,0.608 0 0,0 562.082,58.465
L561.191 58.465
L562.136 58.465
L562.676 57.250
M564.863 59.437 
A0.641,0.641 0 0,1 564.485,59.680
A1.525,1.525 0 0,1 563.729,59.653
A0.722,0.722 0 0,1 563.351,59.383
A0.494,0.494 0 0,1 563.594,58.627
L564.539 58.303
A0.494,0.494 0 0,0 564.782,57.547
A0.722,0.722 0 0,0 564.404,57.277
A1.525,1.525 0 0,0 563.648,57.250
A0.641,0.641 0 0,0 563.270,57.493
M523.607 54.310 
A0.864,0.864 0 0,1 525.335,54.310
L525.335 55.120
A0.864,0.864 0 0,1 523.607,55.120
L523.607 54.310
M525.983 53.500 
L525.983 55.930
L526.874 55.930
A0.608,0.608 0 0,0 526.874,54.715
L525.983 54.715
M566.105 53.500 
L566.105 55.930
L567.725 53.500
L567.725 55.930
M568.373 54.715 L569.723 54.715
M569.993 55.930 
L568.373 55.930
L568.373 53.500
L569.993 53.500
M570.641 54.715 L571.991 54.715
M572.261 55.930 
L570.641 55.930
L570.641 53.500
L572.261 53.500
M572.909 53.500 
L572.909 55.930
L573.800 55.930
A0.608,0.608 0 0,0 573.800,54.715
L572.909 54.715
L573.854 54.715
L574.394 53.500"
fill="none" vector-effect="non-scaling-stroke" stroke="#ffffff" stroke-width="0.200mm" fpd:engraving_ral_9010="1" />
<path d="M468.633 57.255 
L468.633 59.685
L469.524 59.685
A0.608,0.608 0 0,0 469.524,58.470
L468.633 58.470
L469.578 58.470
L470.118 57.255
M470.739 59.685 
L470.739 58.011
A0.810,0.810 0 0,1 472.359,58.011
L472.359 59.685
M473.007 59.685 L473.007 57.255
M473.655 59.685 
L475.275 59.685
L474.465 59.685
L474.465 57.255
M475.923 58.470 L477.273 58.470
M477.543 59.685 
L475.923 59.685
L475.923 57.255
L477.543 57.255
M478.191 59.685 
L478.866 57.255
L479.541 59.685
L480.216 57.255
L480.891 59.685
M481.539 59.685 L481.539 57.255
M483.753 59.442 
A0.641,0.641 0 0,1 483.375,59.685
A1.525,1.525 0 0,1 482.619,59.658
A0.722,0.722 0 0,1 482.241,59.388
A0.494,0.494 0 0,1 482.484,58.632
L483.429 58.308
A0.494,0.494 0 0,0 483.672,57.552
A0.722,0.722 0 0,0 483.294,57.282
A1.525,1.525 0 0,0 482.538,57.255
A0.641,0.641 0 0,0 482.160,57.498
M485.967 59.442 
A0.641,0.641 0 0,1 485.589,59.685
A1.525,1.525 0 0,1 484.833,59.658
A0.722,0.722 0 0,1 484.455,59.388
A0.494,0.494 0 0,1 484.698,58.632
L485.643 58.308
A0.494,0.494 0 0,0 485.886,57.552
A0.722,0.722 0 0,0 485.508,57.282
A1.525,1.525 0 0,0 484.752,57.255
A0.641,0.641 0 0,0 484.374,57.498
M486.615 58.470 L487.965 58.470
M488.235 59.685 
L486.615 59.685
L486.615 57.255
L488.235 57.255
M488.883 57.255 
L488.883 59.685
L489.774 59.685
A0.608,0.608 0 0,0 489.774,58.470
L488.883 58.470
L489.828 58.470
L490.368 57.255
M477.232 55.935 
L477.232 54.261
A0.810,0.810 0 0,1 478.852,54.261
L478.852 55.935
M479.500 55.935 L479.500 53.505
M480.148 55.935 
L481.768 55.935
L480.958 55.935
L480.958 53.505"
fill="none" vector-effect="non-scaling-stroke" stroke="#ffffff" stroke-width="0.200mm" fpd:engraving_ral_9010="1" />
<path d="M464.491 111.743 
A0.792,0.792 0 0,1 463.006,111.338
L463.006 110.420
A0.811,0.811 0 0,1 464.572,110.123
M465.490 110.339 L466.840 110.339
M465.220 109.664 L466.165 112.094L467.110 109.664
M468.649 110.879 
A0.609,0.609 0 0,1 468.649,112.094
L467.758 112.094
L467.758 109.664
L468.784 109.664
A0.609,0.609 0 0,1 468.784,110.879
L467.758 110.879
M470.026 112.094 L470.026 109.664
M470.674 109.664 
L470.674 112.094
L472.294 109.664
L472.294 112.094
M472.942 110.879 L474.292 110.879
M474.562 112.094 
L472.942 112.094
L472.942 109.664
L474.562 109.664
M475.210 112.094 L476.020 109.664L476.830 112.094
M477.478 110.879 L478.828 110.879
M479.098 112.094 
L477.478 112.094
L477.478 109.664
L479.098 109.664
M479.746 109.664 
L479.746 112.094
L480.637 112.094
A0.608,0.608 0 0,0 480.637,110.879
L479.746 110.879
L480.691 110.879
L481.231 109.664
M481.852 112.094 L481.852 109.664L483.202 109.664
M483.850 112.094 L483.850 109.664
M485.983 111.743 
A0.792,0.792 0 0,1 484.498,111.338
L484.498 110.420
A0.811,0.811 0 0,1 486.064,110.123
M486.712 112.094 
L486.712 109.664
L486.712 110.879
L488.332 110.879
L488.332 109.664
L488.332 112.094
M488.980 112.094 
L490.600 112.094
L489.790 112.094
L489.790 109.664
M491.248 112.094 L491.248 109.664
M491.896 109.664 
L491.896 112.094
L493.516 109.664
L493.516 112.094
M495.298 110.879 
L495.892 110.879
L495.892 110.474
A0.864,0.864 0 0,0 494.164,110.474
L494.164 111.284
A0.832,0.832 0 0,0 495.703,111.743
M478.585 106.724 
A0.864,0.864 0 0,1 480.313,106.724
L480.313 107.534
A0.864,0.864 0 0,1 478.585,107.534
L478.585 106.724"
fill="none" vector-effect="non-scaling-stroke" stroke="#ffffff" stroke-width="0.200mm" fpd:engraving_ral_9010="1" />
<path d="M454.500 215.250 L454.500 15.250"
fill="none" vector-effect="non-scaling-stroke" stroke="#ffffff" stroke-width="0.200mm" fpd:engraving_ral_9010="1" />
<circle cx="301.500" cy="215.200" r="7.500"
fill="none" vector-effect="non-scaling-stroke" stroke="#ffffff" stroke-width="0.200mm" fpd:engraving_ral_9010="1" 
/>
<rect x="-4.000" y="-7.497" width="8.000" height="14.994" rx="0.000"
fill="#000000" vector-effect="non-scaling-stroke" stroke="#000000" stroke-width="0.200mm" fpd:engraving_ral_9005="1" 
transform="translate(301.488,219.637) rotate(270.000) "/>
<rect x="-4.000" y="-7.301" width="8.000" height="14.602" rx="0.000"
fill="#000000" vector-effect="non-scaling-stroke" stroke="#000000" stroke-width="0.200mm" fpd:engraving_ral_9005="1" 
transform="translate(301.519,219.312) rotate(270.000) "/>
<circle cx="301.500" cy="15.500" r="7.500"
fill="none" vector-effect="non-scaling-stroke" stroke="#ffffff" stroke-width="0.200mm" fpd:engraving_ral_9010="1" 
/>
<rect x="-4.000" y="-7.497" width="8.000" height="14.994" rx="0.000"
fill="#000000" vector-effect="non-scaling-stroke" stroke="#000000" stroke-width="0.200mm" fpd:engraving_ral_9005="1" 
transform="translate(301.512,11.063) rotate(90.000) "/>
<rect x="-4.000" y="-7.301" width="8.000" height="14.602" rx="0.000"
fill="#000000" vector-effect="non-scaling-stroke" stroke="#000000" stroke-width="0.200mm" fpd:engraving_ral_9005="1" 
transform="translate(301.481,11.388) rotate(90.000) "/>
<circle cx="590.000" cy="26.500" r="7.500"
fill="none" vector-effect="non-scaling-stroke" stroke="#ffffff" stroke-width="0.200mm" fpd:engraving_ral_9010="1" 
/>
<rect x="-4.000" y="-8.003" width="8.000" height="16.006" rx="0.000"
fill="#000000" vector-effect="non-scaling-stroke" stroke="#000000" stroke-width="0.200mm" fpd:engraving_ral_9005="1" 
transform="translate(594.025,26.288) rotate(180.000) "/>
<rect x="-4.000" y="-7.340" width="8.000" height="14.680" rx="0.000"
fill="#000000" vector-effect="non-scaling-stroke" stroke="#000000" stroke-width="0.200mm" fpd:engraving_ral_9005="1" 
transform="translate(593.813,26.482) rotate(180.000) "/>
<circle cx="589.953" cy="198.264" r="7.500"
fill="none" vector-effect="non-scaling-stroke" stroke="#ffffff" stroke-width="0.200mm" fpd:engraving_ral_9010="1" 
/>
<rect x="-4.000" y="-8.003" width="8.000" height="16.006" rx="0.000"
fill="#000000" vector-effect="non-scaling-stroke" stroke="#000000" stroke-width="0.200mm" fpd:engraving_ral_9005="1" 
transform="translate(594.052,198.165) rotate(180.000) "/>
<rect x="-4.000" y="-7.340" width="8.000" height="14.680" rx="0.000"
fill="#000000" vector-effect="non-scaling-stroke" stroke="#000000" stroke-width="0.200mm" fpd:engraving_ral_9005="1" 
transform="translate(593.766,198.246) rotate(180.000) "/>
<path d="M589.571 115.314 L454.571 115.314"
fill="none" vector-effect="non-scaling-stroke" stroke="#ffffff" stroke-width="0.200mm" fpd:engraving_ral_9010="1" />
<path d="M589.571 164.814 L454.571 164.814"
fill="none" vector-effect="non-scaling-stroke" stroke="#ffffff" stroke-width="0.200mm" fpd:engraving_ral_9010="1" />
<path d="M503.893 165.170 L503.893 215.170"
fill="none" vector-effect="non-scaling-stroke" stroke="#ffffff" stroke-width="0.200mm" fpd:engraving_ral_9010="1" />
<path d="M503.738 68.953 L589.738 68.953"
fill="none" vector-effect="non-scaling-stroke" stroke="#ffffff" stroke-width="0.200mm" fpd:engraving_ral_9010="1" />
<path d="M526.082 210.735 
L526.082 213.165
L526.973 213.165
A0.608,0.608 0 0,0 526.973,211.950
L526.082 211.950
M528.188 210.735 
L528.188 213.165
L529.808 210.735
L529.808 213.165
M530.456 211.950 L531.806 211.950
M532.076 213.165 
L530.456 213.165
L530.456 210.735
L532.076 210.735
M532.724 213.165 
L532.724 211.491
A0.810,0.810 0 0,1 534.344,211.491
L534.344 213.165
M534.992 210.735 
L534.992 213.165
L535.937 211.410
L536.882 213.165
L536.882 210.735
M537.800 211.410 L539.150 211.410
M537.530 210.735 L538.475 213.165L539.420 210.735
M540.068 213.165 
L541.688 213.165
L540.878 213.165
L540.878 210.735
M542.336 213.165 L542.336 210.735
M544.550 212.922 
A0.641,0.641 0 0,1 544.172,213.165
A1.525,1.525 0 0,1 543.416,213.138
A0.722,0.722 0 0,1 543.038,212.868
A0.494,0.494 0 0,1 543.281,212.112
L544.226 211.788
A0.494,0.494 0 0,0 544.469,211.032
A0.722,0.722 0 0,0 544.091,210.762
A1.525,1.525 0 0,0 543.335,210.735
A0.641,0.641 0 0,0 542.957,210.978
M546.683 212.814 
A0.792,0.792 0 0,1 545.198,212.409
L545.198 211.491
A0.811,0.811 0 0,1 546.764,211.194
M547.412 213.165 
L547.412 210.735
L547.412 211.950
L549.032 211.950
L549.032 210.735
L549.032 213.165
M549.680 211.950 L551.030 211.950
M551.300 213.165 
L549.680 213.165
L549.680 210.735
L551.300 210.735
M553.676 210.735 
L553.676 213.165
L554.567 213.165
A0.608,0.608 0 0,0 554.567,211.950
L553.676 211.950
L554.621 211.950
L555.161 210.735
M555.782 211.950 L557.132 211.950
M557.402 213.165 
L555.782 213.165
L555.782 210.735
L557.402 210.735
M558.050 210.735 
L558.050 213.165
L558.995 211.410
L559.940 213.165
L559.940 210.735
M560.588 210.735 
L560.588 213.165
L561.533 211.410
L562.478 213.165
L562.478 210.735
M563.126 211.950 L564.476 211.950
M564.746 213.165 
L563.126 213.165
L563.126 210.735
L564.746 210.735
M565.394 210.735 
L565.394 213.165
L567.014 210.735
L567.014 213.165
M516.335 207.660 L517.685 207.660
M516.065 206.985 L517.010 209.415L517.955 206.985
M518.603 209.415 L518.603 206.985L519.953 206.985
M521.735 208.200 
L522.329 208.200
L522.329 207.795
A0.864,0.864 0 0,0 520.601,207.795
L520.601 208.605
A0.832,0.832 0 0,0 522.140,209.064
M522.977 208.200 L524.327 208.200
M524.597 209.415 
L522.977 209.415
L522.977 206.985
L524.597 206.985
M525.245 206.985 
L525.245 209.415
L526.190 207.660
L527.135 209.415
L527.135 206.985
M527.783 208.200 L529.133 208.200
M529.403 209.415 
L527.783 209.415
L527.783 206.985
L529.403 206.985
M530.051 208.200 L531.401 208.200
M531.671 209.415 
L530.051 209.415
L530.051 206.985
L531.671 206.985
M532.319 206.985 
L532.319 209.415
L533.939 206.985
L533.939 209.415
M563.963 209.415 L563.963 206.985L565.313 206.985
M565.961 207.795 
A0.864,0.864 0 0,1 567.689,207.795
L567.689 208.605
A0.864,0.864 0 0,1 565.961,208.605
L565.961 207.795
M568.337 209.415 
L568.337 206.985
L568.337 207.903
L568.796 208.335
L569.957 206.985
L568.796 208.335
L569.957 209.415
M570.875 207.660 L572.225 207.660
M570.605 206.985 L571.550 209.415L572.495 206.985
M573.413 207.660 L574.763 207.660
M573.143 206.985 L574.088 209.415L575.033 206.985
M575.681 209.415 L575.681 206.985L577.031 206.985"
fill="none" vector-effect="non-scaling-stroke" stroke="#ffffff" stroke-width="0.200mm" fpd:engraving_ral_9010="1" />
<path d="M532.557 136.459 L562.377 136.459"
fill="none" vector-effect="non-scaling-stroke" stroke="#ffffff" stroke-width="2.000mm" fpd:engraving_ral_9010="1" />
<path d="M497.715 204.352 
L498.552 204.352
A0.814,0.814 0 0,0 499.335,203.542
L499.335 202.732
A0.782,0.782 0 0,0 498.552,201.922
L497.715 201.922
L497.715 204.352
M499.983 204.352 L499.983 201.922
M500.631 201.922 
L500.631 204.352
L501.576 202.597
L502.521 204.352
L502.521 201.922"
fill="none" vector-effect="non-scaling-stroke" stroke="#ffffff" stroke-width="0.200mm" fpd:engraving_ral_9010="1" />
<path d="M498.435 100.609 L498.435 98.179
M499.083 98.179 
L499.083 100.609
L500.703 98.179
L500.703 100.609"
fill="none" vector-effect="non-scaling-stroke" stroke="#ffffff" stroke-width="0.200mm" fpd:engraving_ral_9010="1" />
<path d="M508.559 105.726 
L508.559 108.156
L509.450 108.156
A0.608,0.608 0 0,0 509.450,106.941
L508.559 106.941
M510.935 106.401 L512.285 106.401
M510.665 105.726 L511.610 108.156L512.555 105.726
M513.203 105.726 
L513.203 108.156
L514.823 105.726
L514.823 108.156
M515.471 108.156 
L517.091 108.156
L516.281 108.156
L516.281 105.726
M517.739 106.536 
A0.864,0.864 0 0,1 519.467,106.536
L519.467 107.346
A0.864,0.864 0 0,1 517.739,107.346
L517.739 106.536
M521.249 106.941 
L521.843 106.941
L521.843 106.536
A0.864,0.864 0 0,0 520.115,106.536
L520.115 107.346
A0.832,0.832 0 0,0 521.654,107.805
M522.491 105.726 
L522.491 108.156
L523.382 108.156
A0.608,0.608 0 0,0 523.382,106.941
L522.491 106.941
L523.436 106.941
L523.976 105.726
M524.867 106.401 L526.217 106.401
M524.597 105.726 L525.542 108.156L526.487 105.726
M527.405 106.401 L528.755 106.401
M527.135 105.726 L528.080 108.156L529.025 105.726
M529.673 106.941 L531.023 106.941
M531.293 108.156 L529.673 108.156L529.673 105.726
M533.669 105.726 
L533.669 108.156
L535.289 105.726
L535.289 108.156
M535.937 106.941 L537.287 106.941
M537.557 108.156 
L535.937 108.156
L535.937 105.726
L537.557 105.726
M538.205 106.941 L539.555 106.941
M539.825 108.156 
L538.205 108.156
L538.205 105.726
L539.825 105.726
M540.473 105.726 
L540.473 108.156
L541.364 108.156
A0.608,0.608 0 0,0 541.364,106.941
L540.473 106.941
L541.418 106.941
L541.958 105.726"
fill="none" vector-effect="non-scaling-stroke" stroke="#ffffff" stroke-width="0.200mm" fpd:engraving_ral_9010="1" />
<path d="M557.925 112.111 
L557.925 109.681
L557.925 110.896
L559.545 110.896
L559.545 109.681
L559.545 112.111
M560.193 110.491 
A0.864,0.864 0 0,1 561.921,110.491
L561.921 111.301
A0.864,0.864 0 0,1 560.193,111.301
L560.193 110.491
M562.569 110.491 
A0.864,0.864 0 0,1 564.297,110.491
L564.297 111.301
A0.864,0.864 0 0,1 562.569,111.301
L562.569 110.491
M566.079 110.896 
L566.673 110.896
L566.673 110.491
A0.864,0.864 0 0,0 564.945,110.491
L564.945 111.301
A0.832,0.832 0 0,0 566.484,111.760
M568.887 111.868 
A0.641,0.641 0 0,1 568.509,112.111
A1.525,1.525 0 0,1 567.753,112.084
A0.722,0.722 0 0,1 567.375,111.814
A0.494,0.494 0 0,1 567.618,111.058
L568.563 110.734
A0.494,0.494 0 0,0 568.806,109.978
A0.722,0.722 0 0,0 568.428,109.708
A1.525,1.525 0 0,0 567.672,109.681
A0.641,0.641 0 0,0 567.294,109.924
M569.535 109.681 
L569.535 112.111
L570.426 112.111
A0.608,0.608 0 0,0 570.426,110.896
L569.535 110.896
M571.911 110.356 L573.261 110.356
M571.641 109.681 L572.586 112.111L573.531 109.681
M574.179 109.681 
L574.179 112.111
L575.799 109.681
L575.799 112.111
M576.447 109.681 
L576.447 112.111
L578.067 109.681
L578.067 112.111
M578.715 112.111 L578.715 109.681
M579.363 109.681 
L579.363 112.111
L580.983 109.681
L580.983 112.111
M582.765 110.896 
L583.359 110.896
L583.359 110.491
A0.864,0.864 0 0,0 581.631,110.491
L581.631 111.301
A0.832,0.832 0 0,0 583.170,111.760
M562.110 106.606 L563.460 106.606
M561.840 105.931 L562.785 108.361L563.730 105.931
M564.648 106.606 L565.998 106.606
M564.378 105.931 L565.323 108.361L566.268 105.931
M566.916 105.931 
L566.916 108.361
L568.536 105.931
L568.536 108.361
M569.184 108.361 
L569.859 105.931
L570.534 108.361
L571.209 105.931
L571.884 108.361
M572.532 107.146 L573.882 107.146
M574.152 108.361 
L572.532 108.361
L572.532 105.931
L574.152 105.931
M574.800 108.361 
L576.420 108.361
L574.800 105.931
L576.420 105.931
M577.068 108.361 L577.068 105.931
M578.850 107.146 
L579.444 107.146
L579.444 106.741
A0.864,0.864 0 0,0 577.716,106.741
L577.716 107.551
A0.832,0.832 0 0,0 579.255,108.010"
fill="none" vector-effect="non-scaling-stroke" stroke="#ffffff" stroke-width="0.200mm" fpd:engraving_ral_9010="1" />
<path d="M456.955 51.911 L456.955 49.481
M457.603 49.481 
L457.603 51.911
L459.223 49.481
L459.223 51.911
M459.871 51.911 
L461.491 51.911
L460.681 51.911
L460.681 49.481
M462.139 50.696 L463.489 50.696
M463.759 51.911 
L462.139 51.911
L462.139 49.481
L463.759 49.481
M464.407 49.481 
L464.407 51.911
L465.298 51.911
A0.608,0.608 0 0,0 465.298,50.696
L464.407 50.696
L465.352 50.696
L465.892 49.481
M456.955 48.161 L457.765 45.731L458.575 48.161
M459.493 46.406 L460.843 46.406
M459.223 45.731 L460.168 48.161L461.113 45.731
M461.761 48.161 L461.761 45.731L463.111 45.731"
fill="none" vector-effect="non-scaling-stroke" stroke="#ffffff" stroke-width="0.200mm" fpd:engraving_ral_9010="1" />
<path d="M499.955 51.911 L499.955 49.481"
fill="none" vector-effect="non-scaling-stroke" stroke="#ffffff" stroke-width="0.200mm" fpd:engraving_ral_9010="1" />
<path d="M501.584 48.159 L501.584 45.729
M502.232 48.159 L502.232 45.729"
fill="none" vector-effect="non-scaling-stroke" stroke="#ffffff" stroke-width="0.200mm" fpd:engraving_ral_9010="1" />
<path d="M427.604 209.937 
A0.641,0.641 0 0,1 427.226,210.180
A1.525,1.525 0 0,1 426.470,210.153
A0.722,0.722 0 0,1 426.092,209.883
A0.494,0.494 0 0,1 426.335,209.127
L427.280 208.803
A0.494,0.494 0 0,0 427.523,208.047
A0.722,0.722 0 0,0 427.145,207.777
A1.525,1.525 0 0,0 426.389,207.750
A0.641,0.641 0 0,0 426.011,207.993
M428.252 210.180 
L429.872 210.180
L429.062 210.180
L429.062 207.750
M430.790 208.425 L432.140 208.425
M430.520 207.750 L431.465 210.180L432.410 207.750
M433.058 210.180 
L434.678 210.180
L433.868 210.180
L433.868 207.750
M435.326 210.180 L435.326 207.750
M435.974 208.560 
A0.864,0.864 0 0,1 437.702,208.560
L437.702 209.370
A0.864,0.864 0 0,1 435.974,209.370
L435.974 208.560
M438.350 207.750 
L438.350 210.180
L439.970 207.750
L439.970 210.180"
fill="none" vector-effect="non-scaling-stroke" stroke="#ffffff" stroke-width="0.200mm" fpd:engraving_ral_9010="1" />
<path d="M425.500 157.680 L426.310 155.250L427.120 157.680
M427.768 155.250 
L427.768 157.680
L428.659 157.680
A0.608,0.608 0 0,0 428.659,156.465
L427.768 156.465
L428.713 156.465
L429.253 155.250
M429.874 157.680 L429.874 155.250
M431.440 157.680 L431.440 155.790A0.549,0.549 0 0,0 430.522,155.358
M432.088 157.680 L432.088 155.250L433.438 155.250
M434.086 156.060 
A0.864,0.864 0 0,1 435.814,156.060
L435.814 156.870
A0.864,0.864 0 0,1 434.086,156.870
L434.086 156.060
M436.462 156.060 
A0.864,0.864 0 0,1 438.190,156.060
L438.190 156.870
A0.864,0.864 0 0,1 436.462,156.870
L436.462 156.060
M438.838 155.250 
L438.838 157.680
L439.729 157.680
A0.608,0.608 0 0,0 439.729,156.465
L438.838 156.465"
fill="none" vector-effect="non-scaling-stroke" stroke="#ffffff" stroke-width="0.200mm" fpd:engraving_ral_9010="1" />
<path d="M427.329 106.401 L428.679 106.401
M427.059 105.726 L428.004 108.156L428.949 105.726
M429.597 105.726 L429.597 105.861
M430.245 108.156 
L431.865 108.156
L431.055 108.156
L431.055 105.726
M432.513 105.726 L432.513 105.861
M434.052 106.941 
A0.609,0.609 0 0,1 434.052,108.156
L433.161 108.156
L433.161 105.726
L434.187 105.726
A0.609,0.609 0 0,1 434.187,106.941
L433.161 106.941
M435.429 105.726 L435.429 105.861
M437.805 108.156 L437.805 105.726
M438.453 105.726 
L438.453 108.156
L440.073 105.726
L440.073 108.156"
fill="none" vector-effect="non-scaling-stroke" stroke="#ffffff" stroke-width="0.200mm" fpd:engraving_ral_9010="1" />
<path d="M421.559 55.656 
L422.396 55.656
A0.814,0.814 0 0,0 423.179,54.846
L423.179 54.036
A0.782,0.782 0 0,0 422.396,53.226
L421.559 53.226
L421.559 55.656
M423.827 54.441 L425.177 54.441
M425.447 55.656 
L423.827 55.656
L423.827 53.226
L425.447 53.226
M426.986 54.441 
A0.609,0.609 0 0,1 426.986,55.656
L426.095 55.656
L426.095 53.226
L427.121 53.226
A0.609,0.609 0 0,1 427.121,54.441
L426.095 54.441
M428.363 55.656 L428.363 53.226L429.713 53.226
M430.361 54.036 
A0.864,0.864 0 0,1 432.089,54.036
L432.089 54.846
A0.864,0.864 0 0,1 430.361,54.846
L430.361 54.036
M432.737 55.656 
L432.737 53.226
L432.737 54.144
L433.196 54.576
L434.357 53.226
L433.196 54.576
L434.357 55.656
M435.005 55.656 
L435.005 53.226
L435.005 54.144
L435.464 54.576
L436.625 53.226
L435.464 54.576
L436.625 55.656
M437.273 54.441 L438.623 54.441
M438.893 55.656 
L437.273 55.656
L437.273 53.226
L438.893 53.226
M439.541 53.226 
L439.541 55.656
L440.432 55.656
A0.608,0.608 0 0,0 440.432,54.441
L439.541 54.441
L440.486 54.441
L441.026 53.226
M441.647 54.441 L442.997 54.441
M443.267 55.656 
L441.647 55.656
L441.647 53.226
L443.267 53.226
M443.915 53.226 
L443.915 55.656
L445.535 53.226
L445.535 55.656"
fill="none" vector-effect="non-scaling-stroke" stroke="#ffffff" stroke-width="0.200mm" fpd:engraving_ral_9010="1" />
<path d="M208.000 155.250 
L208.000 157.680
L208.891 157.680
A0.608,0.608 0 0,0 208.891,156.465
L208.000 156.465
L208.945 156.465
L209.485 155.250
M210.106 156.465 L211.456 156.465
M211.726 157.680 
L210.106 157.680
L210.106 155.250
L211.726 155.250
M212.374 155.250 
L212.374 157.680
L213.319 155.925
L214.264 157.680
L214.264 155.250
M214.912 157.680 
L215.722 156.465
L215.722 155.250
L215.722 156.465
L216.532 157.680"
fill="none" vector-effect="non-scaling-stroke" stroke="#ffffff" stroke-width="0.200mm" fpd:engraving_ral_9010="1" />
<circle cx="31.500" cy="190.500" r="11.000"
fill="#ffffff" vector-effect="non-scaling-stroke" stroke="#000000" stroke-width="0.100mm" 
/>
<circle cx="77.500" cy="190.500" r="11.000"
fill="#ffffff" vector-effect="non-scaling-stroke" stroke="#000000" stroke-width="0.100mm" 
/>
<circle cx="123.500" cy="190.500" r="11.000"
fill="#ffffff" vector-effect="non-scaling-stroke" stroke="#000000" stroke-width="0.100mm" 
/>
<circle cx="32.000" cy="136.500" r="11.000"
fill="#ffffff" vector-effect="non-scaling-stroke" stroke="#000000" stroke-width="0.100mm" 
/>
<circle cx="77.500" cy="136.500" r="11.000"
fill="#ffffff" vector-effect="non-scaling-stroke" stroke="#000000" stroke-width="0.100mm" 
/>
<circle cx="123.500" cy="136.500" r="11.000"
fill="#ffffff" vector-effect="non-scaling-stroke" stroke="#000000" stroke-width="0.100mm" 
/>
<circle cx="9.750" cy="198.250" r="4.000"
fill="#ffffff" vector-effect="non-scaling-stroke" stroke="#000000" stroke-width="0.100mm" 
/>
<circle cx="31.500" cy="88.500" r="11.000"
fill="#ffffff" vector-effect="non-scaling-stroke" stroke="#000000" stroke-width="0.100mm" 
/>
<circle cx="77.500" cy="88.500" r="11.000"
fill="#ffffff" vector-effect="non-scaling-stroke" stroke="#000000" stroke-width="0.100mm" 
/>
<circle cx="123.500" cy="88.500" r="11.000"
fill="#ffffff" vector-effect="non-scaling-stroke" stroke="#000000" stroke-width="0.100mm" 
/>
<circle cx="32.000" cy="34.500" r="11.000"
fill="#ffffff" vector-effect="non-scaling-stroke" stroke="#000000" stroke-width="0.100mm" 
/>
<circle cx="77.500" cy="34.500" r="11.000"
fill="#ffffff" vector-effect="non-scaling-stroke" stroke="#000000" stroke-width="0.100mm" 
/>
<circle cx="123.500" cy="34.500" r="11.000"
fill="#ffffff" vector-effect="non-scaling-stroke" stroke="#000000" stroke-width="0.100mm" 
/>
<circle cx="168.000" cy="190.500" r="11.000"
fill="#ffffff" vector-effect="non-scaling-stroke" stroke="#000000" stroke-width="0.100mm" 
/>
<circle cx="212.000" cy="190.500" r="11.000"
fill="#ffffff" vector-effect="non-scaling-stroke" stroke="#000000" stroke-width="0.100mm" 
/>
<circle cx="168.000" cy="136.500" r="11.000"
fill="#ffffff" vector-effect="non-scaling-stroke" stroke="#000000" stroke-width="0.100mm" 
/>
<circle cx="212.000" cy="136.500" r="11.000"
fill="#ffffff" vector-effect="non-scaling-stroke" stroke="#000000" stroke-width="0.100mm" 
/>
<circle cx="168.000" cy="88.500" r="11.000"
fill="#ffffff" vector-effect="non-scaling-stroke" stroke="#000000" stroke-width="0.100mm" 
/>
<circle cx="212.000" cy="88.500" r="11.000"
fill="#ffffff" vector-effect="non-scaling-stroke" stroke="#000000" stroke-width="0.100mm" 
/>
<circle cx="168.000" cy="34.500" r="11.000"
fill="#ffffff" vector-effect="non-scaling-stroke" stroke="#000000" stroke-width="0.100mm" 
/>
<circle cx="212.000" cy="34.500" r="11.000"
fill="#ffffff" vector-effect="non-scaling-stroke" stroke="#000000" stroke-width="0.100mm" 
/>
<path d="M369.293 184.750 
A0.500,0.500 0 0,0 370.000,184.043
L370.000 48.457
A0.500,0.500 0 0,0 369.293,47.750
L233.707 47.750
A0.500,0.500 0 0,0 233.000,48.457
L233.000 184.043
A0.500,0.500 0 0,0 233.707,184.750
L369.293 184.750z"
fill="#ffffff" vector-effect="non-scaling-stroke" stroke="#000000" stroke-width="0.100mm" />
<circle cx="9.750" cy="26.750" r="4.000"
fill="#ffffff" vector-effect="non-scaling-stroke" stroke="#000000" stroke-width="0.100mm" 
/>
<circle cx="524.500" cy="190.500" r="11.000"
fill="#ffffff" vector-effect="non-scaling-stroke" stroke="#000000" stroke-width="0.100mm" 
/>
<circle cx="570.500" cy="190.500" r="11.000"
fill="#ffffff" vector-effect="non-scaling-stroke" stroke="#000000" stroke-width="0.100mm" 
/>
<circle cx="479.500" cy="190.500" r="11.000"
fill="#ffffff" vector-effect="non-scaling-stroke" stroke="#000000" stroke-width="0.100mm" 
/>
<circle cx="525.000" cy="136.500" r="11.000"
fill="#ffffff" vector-effect="non-scaling-stroke" stroke="#000000" stroke-width="0.100mm" 
/>
<circle cx="570.500" cy="136.500" r="11.000"
fill="#ffffff" vector-effect="non-scaling-stroke" stroke="#000000" stroke-width="0.100mm" 
/>
<circle cx="479.500" cy="136.500" r="11.000"
fill="#ffffff" vector-effect="non-scaling-stroke" stroke="#000000" stroke-width="0.100mm" 
/>
<circle cx="524.500" cy="88.500" r="11.000"
fill="#ffffff" vector-effect="non-scaling-stroke" stroke="#000000" stroke-width="0.100mm" 
/>
<circle cx="570.500" cy="88.500" r="11.000"
fill="#ffffff" vector-effect="non-scaling-stroke" stroke="#000000" stroke-width="0.100mm" 
/>
<circle cx="479.500" cy="88.500" r="11.000"
fill="#ffffff" vector-effect="non-scaling-stroke" stroke="#000000" stroke-width="0.100mm" 
/>
<circle cx="525.000" cy="34.500" r="11.000"
fill="#ffffff" vector-effect="non-scaling-stroke" stroke="#000000" stroke-width="0.100mm" 
/>
<circle cx="570.500" cy="34.500" r="11.000"
fill="#ffffff" vector-effect="non-scaling-stroke" stroke="#000000" stroke-width="0.100mm" 
/>
<circle cx="479.500" cy="34.500" r="11.000"
fill="#ffffff" vector-effect="non-scaling-stroke" stroke="#000000" stroke-width="0.100mm" 
/>
<circle cx="393.500" cy="190.500" r="11.000"
fill="#ffffff" vector-effect="non-scaling-stroke" stroke="#000000" stroke-width="0.100mm" 
/>
<circle cx="433.000" cy="190.500" r="11.000"
fill="#ffffff" vector-effect="non-scaling-stroke" stroke="#000000" stroke-width="0.100mm" 
/>
<circle cx="393.500" cy="136.500" r="11.000"
fill="#ffffff" vector-effect="non-scaling-stroke" stroke="#000000" stroke-width="0.100mm" 
/>
<circle cx="433.000" cy="136.500" r="11.000"
fill="#ffffff" vector-effect="non-scaling-stroke" stroke="#000000" stroke-width="0.100mm" 
/>
<circle cx="393.500" cy="88.500" r="11.000"
fill="#ffffff" vector-effect="non-scaling-stroke" stroke="#000000" stroke-width="0.100mm" 
/>
<circle cx="433.000" cy="88.500" r="11.000"
fill="#ffffff" vector-effect="non-scaling-stroke" stroke="#000000" stroke-width="0.100mm" 
/>
<circle cx="393.500" cy="34.500" r="11.000"
fill="#ffffff" vector-effect="non-scaling-stroke" stroke="#000000" stroke-width="0.100mm" 
/>
<circle cx="433.000" cy="34.500" r="11.000"
fill="#ffffff" vector-effect="non-scaling-stroke" stroke="#000000" stroke-width="0.100mm" 
/>
<circle cx="301.250" cy="214.950" r="4.000"
fill="#ffffff" vector-effect="non-scaling-stroke" stroke="#000000" stroke-width="0.100mm" 
/>
<circle cx="301.750" cy="15.750" r="4.000"
fill="#ffffff" vector-effect="non-scaling-stroke" stroke="#000000" stroke-width="0.100mm" 
/>
<circle cx="589.750" cy="26.250" r="4.000"
fill="#ffffff" vector-effect="non-scaling-stroke" stroke="#000000" stroke-width="0.100mm" 
/>
<circle cx="589.703" cy="198.014" r="4.000"
fill="#ffffff" vector-effect="non-scaling-stroke" stroke="#000000" stroke-width="0.100mm" 
/>
<path d="M-1.000 0.000 L1.000 0.000
M0.000 -1.000 L0.000 1.000"
fill="none" vector-effect="non-scaling-stroke" stroke="#ff0000" stroke-width="0.100mm" />
<path d="M30.500 190.500 L32.500 190.500
M31.500 189.500 L31.500 191.500"
fill="none" vector-effect="non-scaling-stroke" stroke="#ff0000" stroke-width="0.100mm" />
<path d="M12.000 209.000 L14.000 209.000
M13.000 208.000 L13.000 210.000"
fill="none" vector-effect="non-scaling-stroke" stroke="#ff0000" stroke-width="0.100mm" />
<path d="M76.500 190.500 L78.500 190.500
M77.500 189.500 L77.500 191.500"
fill="none" vector-effect="non-scaling-stroke" stroke="#ff0000" stroke-width="0.100mm" />
<path d="M64.000 209.000 L66.000 209.000
M65.000 208.000 L65.000 210.000"
fill="none" vector-effect="non-scaling-stroke" stroke="#ff0000" stroke-width="0.100mm" />
<path d="M122.500 190.500 L124.500 190.500
M123.500 189.500 L123.500 191.500"
fill="none" vector-effect="non-scaling-stroke" stroke="#ff0000" stroke-width="0.100mm" />
<path d="M122.000 212.000 L124.000 212.000
M123.000 211.000 L123.000 213.000"
fill="none" vector-effect="non-scaling-stroke" stroke="#ff0000" stroke-width="0.100mm" />
<path d="M31.000 136.500 L33.000 136.500
M32.000 135.500 L32.000 137.500"
fill="none" vector-effect="non-scaling-stroke" stroke="#ff0000" stroke-width="0.100mm" />
<path d="M18.500 156.500 L20.500 156.500
M19.500 155.500 L19.500 157.500"
fill="none" vector-effect="non-scaling-stroke" stroke="#ff0000" stroke-width="0.100mm" />
<path d="M76.500 136.500 L78.500 136.500
M77.500 135.500 L77.500 137.500"
fill="none" vector-effect="non-scaling-stroke" stroke="#ff0000" stroke-width="0.100mm" />
<path d="M64.000 156.500 L66.000 156.500
M65.000 155.500 L65.000 157.500"
fill="none" vector-effect="non-scaling-stroke" stroke="#ff0000" stroke-width="0.100mm" />
<path d="M121.500 160.500 L123.500 160.500
M122.500 159.500 L122.500 161.500"
fill="none" vector-effect="non-scaling-stroke" stroke="#ff0000" stroke-width="0.100mm" />
<path d="M122.500 136.500 L124.500 136.500
M123.500 135.500 L123.500 137.500"
fill="none" vector-effect="non-scaling-stroke" stroke="#ff0000" stroke-width="0.100mm" />
<path d="M298.535 115.385 L300.535 115.385
M299.535 114.385 L299.535 116.385"
fill="none" vector-effect="non-scaling-stroke" stroke="#ff0000" stroke-width="0.100mm" />
<path d="M76.000 115.500 L78.000 115.500
M77.000 114.500 L77.000 116.500"
fill="none" vector-effect="non-scaling-stroke" stroke="#ff0000" stroke-width="0.100mm" />
<path d="M98.750 165.501 L100.750 165.501
M99.750 164.501 L99.750 166.501"
fill="none" vector-effect="non-scaling-stroke" stroke="#ff0000" stroke-width="0.100mm" />
<path d="M53.750 165.501 L55.750 165.501
M54.750 164.501 L54.750 166.501"
fill="none" vector-effect="non-scaling-stroke" stroke="#ff0000" stroke-width="0.100mm" />
<path d="M8.500 198.000 L10.500 198.000
M9.500 197.000 L9.500 199.000"
fill="none" vector-effect="non-scaling-stroke" stroke="#00ff00" stroke-width="0.100mm" />
<path d="M4.250 198.250 L6.250 198.250
M5.250 197.250 L5.250 199.250"
fill="none" vector-effect="non-scaling-stroke" stroke="#00ff00" stroke-width="0.100mm" />
<path d="M5.250 198.000 L7.250 198.000
M6.250 197.000 L6.250 199.000"
fill="none" vector-effect="non-scaling-stroke" stroke="#00ff00" stroke-width="0.100mm" />
<path d="M8.750 198.250 L10.750 198.250
M9.750 197.250 L9.750 199.250"
fill="none" vector-effect="non-scaling-stroke" stroke="#00ff00" stroke-width="0.100mm" />
<path d="M8.500 198.000 L10.500 198.000
M9.500 197.000 L9.500 199.000"
fill="none" vector-effect="non-scaling-stroke" stroke="#ff0000" stroke-width="0.100mm" />
<path d="M30.500 88.500 L32.500 88.500
M31.500 87.500 L31.500 89.500"
fill="none" vector-effect="non-scaling-stroke" stroke="#ff0000" stroke-width="0.100mm" />
<path d="M13.500 107.000 L15.500 107.000
M14.500 106.000 L14.500 108.000"
fill="none" vector-effect="non-scaling-stroke" stroke="#ff0000" stroke-width="0.100mm" />
<path d="M76.500 88.500 L78.500 88.500
M77.500 87.500 L77.500 89.500"
fill="none" vector-effect="non-scaling-stroke" stroke="#ff0000" stroke-width="0.100mm" />
<path d="M76.500 111.000 L78.500 111.000
M77.500 110.000 L77.500 112.000"
fill="none" vector-effect="non-scaling-stroke" stroke="#ff0000" stroke-width="0.100mm" />
<path d="M122.500 88.500 L124.500 88.500
M123.500 87.500 L123.500 89.500"
fill="none" vector-effect="non-scaling-stroke" stroke="#ff0000" stroke-width="0.100mm" />
<path d="M31.000 34.500 L33.000 34.500
M32.000 33.500 L32.000 35.500"
fill="none" vector-effect="non-scaling-stroke" stroke="#ff0000" stroke-width="0.100mm" />
<path d="M18.500 54.500 L20.500 54.500
M19.500 53.500 L19.500 55.500"
fill="none" vector-effect="non-scaling-stroke" stroke="#ff0000" stroke-width="0.100mm" />
<path d="M76.500 34.500 L78.500 34.500
M77.500 33.500 L77.500 35.500"
fill="none" vector-effect="non-scaling-stroke" stroke="#ff0000" stroke-width="0.100mm" />
<path d="M70.000 54.500 L72.000 54.500
M71.000 53.500 L71.000 55.500"
fill="none" vector-effect="non-scaling-stroke" stroke="#ff0000" stroke-width="0.100mm" />
<path d="M122.500 54.500 L124.500 54.500
M123.500 53.500 L123.500 55.500"
fill="none" vector-effect="non-scaling-stroke" stroke="#ff0000" stroke-width="0.100mm" />
<path d="M122.500 34.500 L124.500 34.500
M123.500 33.500 L123.500 35.500"
fill="none" vector-effect="non-scaling-stroke" stroke="#ff0000" stroke-width="0.100mm" />
<path d="M106.000 107.000 L108.000 107.000
M107.000 106.000 L107.000 108.000"
fill="none" vector-effect="non-scaling-stroke" stroke="#ff0000" stroke-width="0.100mm" />
<path d="M167.000 190.500 L169.000 190.500
M168.000 189.500 L168.000 191.500"
fill="none" vector-effect="non-scaling-stroke" stroke="#ff0000" stroke-width="0.100mm" />
<path d="M211.000 190.500 L213.000 190.500
M212.000 189.500 L212.000 191.500"
fill="none" vector-effect="non-scaling-stroke" stroke="#ff0000" stroke-width="0.100mm" />
<path d="M167.000 136.500 L169.000 136.500
M168.000 135.500 L168.000 137.500"
fill="none" vector-effect="non-scaling-stroke" stroke="#ff0000" stroke-width="0.100mm" />
<path d="M160.500 156.500 L162.500 156.500
M161.500 155.500 L161.500 157.500"
fill="none" vector-effect="non-scaling-stroke" stroke="#ff0000" stroke-width="0.100mm" />
<path d="M211.000 136.500 L213.000 136.500
M212.000 135.500 L212.000 137.500"
fill="none" vector-effect="non-scaling-stroke" stroke="#ff0000" stroke-width="0.100mm" />
<path d="M167.000 88.500 L169.000 88.500
M168.000 87.500 L168.000 89.500"
fill="none" vector-effect="non-scaling-stroke" stroke="#ff0000" stroke-width="0.100mm" />
<path d="M211.000 88.500 L213.000 88.500
M212.000 87.500 L212.000 89.500"
fill="none" vector-effect="non-scaling-stroke" stroke="#ff0000" stroke-width="0.100mm" />
<path d="M167.000 34.500 L169.000 34.500
M168.000 33.500 L168.000 35.500"
fill="none" vector-effect="non-scaling-stroke" stroke="#ff0000" stroke-width="0.100mm" />
<path d="M158.000 54.500 L160.000 54.500
M159.000 53.500 L159.000 55.500"
fill="none" vector-effect="non-scaling-stroke" stroke="#ff0000" stroke-width="0.100mm" />
<path d="M211.000 34.500 L213.000 34.500
M212.000 33.500 L212.000 35.500"
fill="none" vector-effect="non-scaling-stroke" stroke="#ff0000" stroke-width="0.100mm" />
<path d="M155.000 107.000 L157.000 107.000
M156.000 106.000 L156.000 108.000"
fill="none" vector-effect="non-scaling-stroke" stroke="#ff0000" stroke-width="0.100mm" />
<path d="M300.500 116.250 L302.500 116.250
M301.500 115.250 L301.500 117.250"
fill="none" vector-effect="non-scaling-stroke" stroke="#ff0000" stroke-width="0.100mm" />
<path d="M144.000 115.250 L146.000 115.250
M145.000 114.250 L145.000 116.250"
fill="none" vector-effect="non-scaling-stroke" stroke="#ff0000" stroke-width="0.100mm" />
<path d="M8.500 26.500 L10.500 26.500
M9.500 25.500 L9.500 27.500"
fill="none" vector-effect="non-scaling-stroke" stroke="#00ff00" stroke-width="0.100mm" />
<path d="M4.250 26.750 L6.250 26.750
M5.250 25.750 L5.250 27.750"
fill="none" vector-effect="non-scaling-stroke" stroke="#00ff00" stroke-width="0.100mm" />
<path d="M5.250 26.500 L7.250 26.500
M6.250 25.500 L6.250 27.500"
fill="none" vector-effect="non-scaling-stroke" stroke="#00ff00" stroke-width="0.100mm" />
<path d="M8.750 26.750 L10.750 26.750
M9.750 25.750 L9.750 27.750"
fill="none" vector-effect="non-scaling-stroke" stroke="#00ff00" stroke-width="0.100mm" />
<path d="M8.500 26.500 L10.500 26.500
M9.500 25.500 L9.500 27.500"
fill="none" vector-effect="non-scaling-stroke" stroke="#ff0000" stroke-width="0.100mm" />
<path d="M523.500 190.500 L525.500 190.500
M524.500 189.500 L524.500 191.500"
fill="none" vector-effect="non-scaling-stroke" stroke="#ff0000" stroke-width="0.100mm" />
<path d="M569.500 190.500 L571.500 190.500
M570.500 189.500 L570.500 191.500"
fill="none" vector-effect="non-scaling-stroke" stroke="#ff0000" stroke-width="0.100mm" />
<path d="M656.000 209.000 L658.000 209.000
M657.000 208.000 L657.000 210.000"
fill="none" vector-effect="non-scaling-stroke" stroke="#ff0000" stroke-width="0.100mm" />
<path d="M478.500 190.500 L480.500 190.500
M479.500 189.500 L479.500 191.500"
fill="none" vector-effect="non-scaling-stroke" stroke="#ff0000" stroke-width="0.100mm" />
<path d="M478.000 212.000 L480.000 212.000
M479.000 211.000 L479.000 213.000"
fill="none" vector-effect="non-scaling-stroke" stroke="#ff0000" stroke-width="0.100mm" />
<path d="M524.000 136.500 L526.000 136.500
M525.000 135.500 L525.000 137.500"
fill="none" vector-effect="non-scaling-stroke" stroke="#ff0000" stroke-width="0.100mm" />
<path d="M511.500 156.500 L513.500 156.500
M512.500 155.500 L512.500 157.500"
fill="none" vector-effect="non-scaling-stroke" stroke="#ff0000" stroke-width="0.100mm" />
<path d="M569.500 136.500 L571.500 136.500
M570.500 135.500 L570.500 137.500"
fill="none" vector-effect="non-scaling-stroke" stroke="#ff0000" stroke-width="0.100mm" />
<path d="M656.000 156.500 L658.000 156.500
M657.000 155.500 L657.000 157.500"
fill="none" vector-effect="non-scaling-stroke" stroke="#ff0000" stroke-width="0.100mm" />
<path d="M478.500 136.500 L480.500 136.500
M479.500 135.500 L479.500 137.500"
fill="none" vector-effect="non-scaling-stroke" stroke="#ff0000" stroke-width="0.100mm" />
<path d="M502.831 65.556 L504.831 65.556
M503.831 64.556 L503.831 66.556"
fill="none" vector-effect="non-scaling-stroke" stroke="#ff0000" stroke-width="0.100mm" />
<path d="M523.500 88.500 L525.500 88.500
M524.500 87.500 L524.500 89.500"
fill="none" vector-effect="non-scaling-stroke" stroke="#ff0000" stroke-width="0.100mm" />
<path d="M569.500 88.500 L571.500 88.500
M570.500 87.500 L570.500 89.500"
fill="none" vector-effect="non-scaling-stroke" stroke="#ff0000" stroke-width="0.100mm" />
<path d="M668.500 111.000 L670.500 111.000
M669.500 110.000 L669.500 112.000"
fill="none" vector-effect="non-scaling-stroke" stroke="#ff0000" stroke-width="0.100mm" />
<path d="M478.500 88.500 L480.500 88.500
M479.500 87.500 L479.500 89.500"
fill="none" vector-effect="non-scaling-stroke" stroke="#ff0000" stroke-width="0.100mm" />
<path d="M524.000 34.500 L526.000 34.500
M525.000 33.500 L525.000 35.500"
fill="none" vector-effect="non-scaling-stroke" stroke="#ff0000" stroke-width="0.100mm" />
<path d="M548.000 58.500 L550.000 58.500
M549.000 57.500 L549.000 59.500"
fill="none" vector-effect="non-scaling-stroke" stroke="#ff0000" stroke-width="0.100mm" />
<path d="M569.500 34.500 L571.500 34.500
M570.500 33.500 L570.500 35.500"
fill="none" vector-effect="non-scaling-stroke" stroke="#ff0000" stroke-width="0.100mm" />
<path d="M478.500 58.505 L480.500 58.505
M479.500 57.505 L479.500 59.505"
fill="none" vector-effect="non-scaling-stroke" stroke="#ff0000" stroke-width="0.100mm" />
<path d="M478.500 34.500 L480.500 34.500
M479.500 33.500 L479.500 35.500"
fill="none" vector-effect="non-scaling-stroke" stroke="#ff0000" stroke-width="0.100mm" />
<path d="M478.449 110.914 L480.449 110.914
M479.449 109.914 L479.449 111.914"
fill="none" vector-effect="non-scaling-stroke" stroke="#ff0000" stroke-width="0.100mm" />
<path d="M392.500 190.500 L394.500 190.500
M393.500 189.500 L393.500 191.500"
fill="none" vector-effect="non-scaling-stroke" stroke="#ff0000" stroke-width="0.100mm" />
<path d="M432.000 190.500 L434.000 190.500
M433.000 189.500 L433.000 191.500"
fill="none" vector-effect="non-scaling-stroke" stroke="#ff0000" stroke-width="0.100mm" />
<path d="M392.500 136.500 L394.500 136.500
M393.500 135.500 L393.500 137.500"
fill="none" vector-effect="non-scaling-stroke" stroke="#ff0000" stroke-width="0.100mm" />
<path d="M432.000 136.500 L434.000 136.500
M433.000 135.500 L433.000 137.500"
fill="none" vector-effect="non-scaling-stroke" stroke="#ff0000" stroke-width="0.100mm" />
<path d="M392.500 88.500 L394.500 88.500
M393.500 87.500 L393.500 89.500"
fill="none" vector-effect="non-scaling-stroke" stroke="#ff0000" stroke-width="0.100mm" />
<path d="M432.000 88.500 L434.000 88.500
M433.000 87.500 L433.000 89.500"
fill="none" vector-effect="non-scaling-stroke" stroke="#ff0000" stroke-width="0.100mm" />
<path d="M392.500 34.500 L394.500 34.500
M393.500 33.500 L393.500 35.500"
fill="none" vector-effect="non-scaling-stroke" stroke="#ff0000" stroke-width="0.100mm" />
<path d="M432.000 34.500 L434.000 34.500
M433.000 33.500 L433.000 35.500"
fill="none" vector-effect="non-scaling-stroke" stroke="#ff0000" stroke-width="0.100mm" />
<path d="M453.500 115.250 L455.500 115.250
M454.500 114.250 L454.500 116.250"
fill="none" vector-effect="non-scaling-stroke" stroke="#ff0000" stroke-width="0.100mm" />
<path d="M300.500 215.200 L302.500 215.200
M301.500 214.200 L301.500 216.200"
fill="none" vector-effect="non-scaling-stroke" stroke="#00ff00" stroke-width="0.100mm" />
<path d="M300.488 219.637 L302.488 219.637
M301.488 218.637 L301.488 220.637"
fill="none" vector-effect="non-scaling-stroke" stroke="#00ff00" stroke-width="0.100mm" />
<path d="M300.519 219.312 L302.519 219.312
M301.519 218.312 L301.519 220.312"
fill="none" vector-effect="non-scaling-stroke" stroke="#00ff00" stroke-width="0.100mm" />
<path d="M300.250 214.950 L302.250 214.950
M301.250 213.950 L301.250 215.950"
fill="none" vector-effect="non-scaling-stroke" stroke="#00ff00" stroke-width="0.100mm" />
<path d="M300.500 215.200 L302.500 215.200
M301.500 214.200 L301.500 216.200"
fill="none" vector-effect="non-scaling-stroke" stroke="#ff0000" stroke-width="0.100mm" />
<path d="M300.500 15.500 L302.500 15.500
M301.500 14.500 L301.500 16.500"
fill="none" vector-effect="non-scaling-stroke" stroke="#00ff00" stroke-width="0.100mm" />
<path d="M300.512 11.063 L302.512 11.063
M301.512 10.063 L301.512 12.063"
fill="none" vector-effect="non-scaling-stroke" stroke="#00ff00" stroke-width="0.100mm" />
<path d="M300.481 11.388 L302.481 11.388
M301.481 10.388 L301.481 12.388"
fill="none" vector-effect="non-scaling-stroke" stroke="#00ff00" stroke-width="0.100mm" />
<path d="M300.750 15.750 L302.750 15.750
M301.750 14.750 L301.750 16.750"
fill="none" vector-effect="non-scaling-stroke" stroke="#00ff00" stroke-width="0.100mm" />
<path d="M300.500 15.500 L302.500 15.500
M301.500 14.500 L301.500 16.500"
fill="none" vector-effect="non-scaling-stroke" stroke="#ff0000" stroke-width="0.100mm" />
<path d="M589.000 26.500 L591.000 26.500
M590.000 25.500 L590.000 27.500"
fill="none" vector-effect="non-scaling-stroke" stroke="#00ff00" stroke-width="0.100mm" />
<path d="M593.025 26.288 L595.025 26.288
M594.025 25.288 L594.025 27.288"
fill="none" vector-effect="non-scaling-stroke" stroke="#00ff00" stroke-width="0.100mm" />
<path d="M592.813 26.482 L594.813 26.482
M593.813 25.482 L593.813 27.482"
fill="none" vector-effect="non-scaling-stroke" stroke="#00ff00" stroke-width="0.100mm" />
<path d="M588.750 26.250 L590.750 26.250
M589.750 25.250 L589.750 27.250"
fill="none" vector-effect="non-scaling-stroke" stroke="#00ff00" stroke-width="0.100mm" />
<path d="M589.000 26.500 L591.000 26.500
M590.000 25.500 L590.000 27.500"
fill="none" vector-effect="non-scaling-stroke" stroke="#ff0000" stroke-width="0.100mm" />
<path d="M588.953 198.264 L590.953 198.264
M589.953 197.264 L589.953 199.264"
fill="none" vector-effect="non-scaling-stroke" stroke="#00ff00" stroke-width="0.100mm" />
<path d="M593.052 198.165 L595.052 198.165
M594.052 197.165 L594.052 199.165"
fill="none" vector-effect="non-scaling-stroke" stroke="#00ff00" stroke-width="0.100mm" />
<path d="M592.766 198.246 L594.766 198.246
M593.766 197.246 L593.766 199.246"
fill="none" vector-effect="non-scaling-stroke" stroke="#00ff00" stroke-width="0.100mm" />
<path d="M588.703 198.014 L590.703 198.014
M589.703 197.014 L589.703 199.014"
fill="none" vector-effect="non-scaling-stroke" stroke="#00ff00" stroke-width="0.100mm" />
<path d="M589.253 198.165 L591.253 198.165
M590.253 197.165 L590.253 199.165"
fill="none" vector-effect="non-scaling-stroke" stroke="#ff0000" stroke-width="0.100mm" />
<path d="M521.071 115.314 L523.071 115.314
M522.071 114.314 L522.071 116.314"
fill="none" vector-effect="non-scaling-stroke" stroke="#ff0000" stroke-width="0.100mm" />
<path d="M521.071 164.814 L523.071 164.814
M522.071 163.814 L522.071 165.814"
fill="none" vector-effect="non-scaling-stroke" stroke="#ff0000" stroke-width="0.100mm" />
<path d="M502.893 190.170 L504.893 190.170
M503.893 189.170 L503.893 191.170"
fill="none" vector-effect="non-scaling-stroke" stroke="#ff0000" stroke-width="0.100mm" />
<path d="M545.738 68.953 L547.738 68.953
M546.738 67.953 L546.738 69.953"
fill="none" vector-effect="non-scaling-stroke" stroke="#ff0000" stroke-width="0.100mm" />
<path d="M545.548 211.985 L547.548 211.985
M546.548 210.985 L546.548 212.985"
fill="none" vector-effect="non-scaling-stroke" stroke="#ff0000" stroke-width="0.100mm" />
<path d="M546.467 136.459 L548.467 136.459
M547.467 135.459 L547.467 137.459"
fill="none" vector-effect="non-scaling-stroke" stroke="#ff0000" stroke-width="0.100mm" />
<path d="M499.118 203.172 L501.118 203.172
M500.118 202.172 L500.118 204.172"
fill="none" vector-effect="non-scaling-stroke" stroke="#ff0000" stroke-width="0.100mm" />
<path d="M498.569 99.429 L500.569 99.429
M499.569 98.429 L499.569 100.429"
fill="none" vector-effect="non-scaling-stroke" stroke="#ff0000" stroke-width="0.100mm" />
<path d="M507.559 106.976 L509.559 106.976
M508.559 105.976 L508.559 107.976"
fill="none" vector-effect="non-scaling-stroke" stroke="#ff0000" stroke-width="0.100mm" />
<path d="M569.642 110.931 L571.642 110.931
M570.642 109.931 L570.642 111.931"
fill="none" vector-effect="non-scaling-stroke" stroke="#ff0000" stroke-width="0.100mm" />
<path d="M455.955 50.731 L457.955 50.731
M456.955 49.731 L456.955 51.731"
fill="none" vector-effect="non-scaling-stroke" stroke="#ff0000" stroke-width="0.100mm" />
<path d="M498.955 50.731 L500.955 50.731
M499.955 49.731 L499.955 51.731"
fill="none" vector-effect="non-scaling-stroke" stroke="#ff0000" stroke-width="0.100mm" />
<path d="M500.584 46.979 L502.584 46.979
M501.584 45.979 L501.584 47.979"
fill="none" vector-effect="non-scaling-stroke" stroke="#ff0000" stroke-width="0.100mm" />
<path d="M425.000 209.000 L427.000 209.000
M426.000 208.000 L426.000 210.000"
fill="none" vector-effect="non-scaling-stroke" stroke="#ff0000" stroke-width="0.100mm" />
<path d="M424.500 156.500 L426.500 156.500
M425.500 155.500 L425.500 157.500"
fill="none" vector-effect="non-scaling-stroke" stroke="#ff0000" stroke-width="0.100mm" />
<path d="M426.059 106.976 L428.059 106.976
M427.059 105.976 L427.059 107.976"
fill="none" vector-effect="non-scaling-stroke" stroke="#ff0000" stroke-width="0.100mm" />
<path d="M420.559 54.476 L422.559 54.476
M421.559 53.476 L421.559 55.476"
fill="none" vector-effect="non-scaling-stroke" stroke="#ff0000" stroke-width="0.100mm" />
<path d="M207.000 156.500 L209.000 156.500
M208.000 155.500 L208.000 157.500"
fill="none" vector-effect="non-scaling-stroke" stroke="#ff0000" stroke-width="0.100mm" />
</g>
</svg>
